<svg id="visual" viewBox="0 0 960 540" width="960" height="540" xmlns="http://www.w3.org/2000/svg" xmlns:xlink="http://www.w3.org/1999/xlink" version="1.1"><rect x="0" y="0" width="960" height="540" fill="#212529"></rect><defs><linearGradient id="grad1_0" x1="43.8%" y1="0%" x2="100%" y2="100%"><stop offset="14.444444444444446%" stop-color="#9a3a3a" stop-opacity="1"></stop><stop offset="85.55555555555554%" stop-color="#9a3a3a" stop-opacity="1"></stop></linearGradient></defs><defs><linearGradient id="grad1_1" x1="43.8%" y1="0%" x2="100%" y2="100%"><stop offset="14.444444444444446%" stop-color="#9a3a3a" stop-opacity="1"></stop><stop offset="85.55555555555554%" stop-color="#87344c" stop-opacity="1"></stop></linearGradient></defs><defs><linearGradient id="grad1_2" x1="43.8%" y1="0%" x2="100%" y2="100%"><stop offset="14.444444444444446%" stop-color="#6d3455" stop-opacity="1"></stop><stop offset="85.55555555555554%" stop-color="#87344c" stop-opacity="1"></stop></linearGradient></defs><defs><linearGradient id="grad1_3" x1="43.8%" y1="0%" x2="100%" y2="100%"><stop offset="14.444444444444446%" stop-color="#6d3455" stop-opacity="1"></stop><stop offset="85.55555555555554%" stop-color="#513455" stop-opacity="1"></stop></linearGradient></defs><defs><linearGradient id="grad1_4" x1="43.8%" y1="0%" x2="100%" y2="100%"><stop offset="14.444444444444446%" stop-color="#37324c" stop-opacity="1"></stop><stop offset="85.55555555555554%" stop-color="#513455" stop-opacity="1"></stop></linearGradient></defs><defs><linearGradient id="grad1_5" x1="43.8%" y1="0%" x2="100%" y2="100%"><stop offset="14.444444444444446%" stop-color="#37324c" stop-opacity="1"></stop><stop offset="85.55555555555554%" stop-color="#272d3b" stop-opacity="1"></stop></linearGradient></defs><defs><linearGradient id="grad1_6" x1="43.8%" y1="0%" x2="100%" y2="100%"><stop offset="14.444444444444446%" stop-color="#212529" stop-opacity="1"></stop><stop offset="85.55555555555554%" stop-color="#272d3b" stop-opacity="1"></stop></linearGradient></defs><defs><linearGradient id="grad2_0" x1="0%" y1="0%" x2="56.3%" y2="100%"><stop offset="14.444444444444446%" stop-color="#9a3a3a" stop-opacity="1"></stop><stop offset="85.55555555555554%" stop-color="#9a3a3a" stop-opacity="1"></stop></linearGradient></defs><defs><linearGradient id="grad2_1" x1="0%" y1="0%" x2="56.3%" y2="100%"><stop offset="14.444444444444446%" stop-color="#87344c" stop-opacity="1"></stop><stop offset="85.55555555555554%" stop-color="#9a3a3a" stop-opacity="1"></stop></linearGradient></defs><defs><linearGradient id="grad2_2" x1="0%" y1="0%" x2="56.3%" y2="100%"><stop offset="14.444444444444446%" stop-color="#87344c" stop-opacity="1"></stop><stop offset="85.55555555555554%" stop-color="#6d3455" stop-opacity="1"></stop></linearGradient></defs><defs><linearGradient id="grad2_3" x1="0%" y1="0%" x2="56.3%" y2="100%"><stop offset="14.444444444444446%" stop-color="#513455" stop-opacity="1"></stop><stop offset="85.55555555555554%" stop-color="#6d3455" stop-opacity="1"></stop></linearGradient></defs><defs><linearGradient id="grad2_4" x1="0%" y1="0%" x2="56.3%" y2="100%"><stop offset="14.444444444444446%" stop-color="#513455" stop-opacity="1"></stop><stop offset="85.55555555555554%" stop-color="#37324c" stop-opacity="1"></stop></linearGradient></defs><defs><linearGradient id="grad2_5" x1="0%" y1="0%" x2="56.3%" y2="100%"><stop offset="14.444444444444446%" stop-color="#272d3b" stop-opacity="1"></stop><stop offset="85.55555555555554%" stop-color="#37324c" stop-opacity="1"></stop></linearGradient></defs><defs><linearGradient id="grad2_6" x1="0%" y1="0%" x2="56.3%" y2="100%"><stop offset="14.444444444444446%" stop-color="#272d3b" stop-opacity="1"></stop><stop offset="85.55555555555554%" stop-color="#212529" stop-opacity="1"></stop></linearGradient></defs><g transform="translate(960, 0)"><path d="M0 540C-33.9 510.3 -67.7 480.6 -108.8 476.7C-149.9 472.8 -198.3 494.7 -231.3 480.2C-264.2 465.7 -281.8 414.8 -303 380C-324.2 345.1 -349 326.3 -384.7 306.8C-420.3 287.2 -466.7 267.1 -486.5 234.3C-506.3 201.5 -499.6 156.2 -504 115C-508.5 73.9 -524.3 36.9 -540 0L0 0Z" fill="#232932"></path><path d="M0 462.9C-29 437.4 -58 412 -93.3 408.6C-128.5 405.3 -170 424 -198.2 411.6C-226.5 399.2 -241.6 355.6 -259.7 325.7C-277.9 295.8 -299.2 279.7 -329.7 262.9C-360.2 246.2 -400 228.9 -417 200.8C-434 172.7 -428.2 133.9 -432 98.6C-435.9 63.3 -449.4 31.7 -462.9 0L0 0Z" fill="#2e3044"></path><path d="M0 385.7C-24.2 364.5 -48.4 343.3 -77.7 340.5C-107.1 337.7 -141.6 353.4 -165.2 343C-188.7 332.7 -201.3 296.3 -216.4 271.4C-231.6 246.5 -249.3 233 -274.8 219.1C-300.2 205.2 -333.4 190.8 -347.5 167.4C-361.7 144 -356.8 111.6 -360 82.2C-363.2 52.8 -374.5 26.4 -385.7 0L0 0Z" fill="#433351"></path><path d="M0 308.6C-19.3 291.6 -38.7 274.7 -62.2 272.4C-85.7 270.2 -113.3 282.7 -132.1 274.4C-151 266.1 -161 237 -173.2 217.1C-185.3 197.2 -199.5 186.4 -219.8 175.3C-240.2 164.1 -266.7 152.6 -278 133.9C-289.3 115.2 -285.5 89.3 -288 65.7C-290.6 42.2 -299.6 21.1 -308.6 0L0 0Z" fill="#5f3456"></path><path d="M0 231.4C-14.5 218.7 -29 206 -46.6 204.3C-64.3 202.6 -85 212 -99.1 205.8C-113.2 199.6 -120.8 177.8 -129.9 162.8C-139 147.9 -149.6 139.8 -164.9 131.5C-180.1 123.1 -200 114.5 -208.5 100.4C-217 86.4 -214.1 66.9 -216 49.3C-217.9 31.7 -224.7 15.8 -231.4 0L0 0Z" fill="#7b3351"></path><path d="M0 154.3C-9.7 145.8 -19.3 137.3 -31.1 136.2C-42.8 135.1 -56.7 141.3 -66.1 137.2C-75.5 133.1 -80.5 118.5 -86.6 108.6C-92.6 98.6 -99.7 93.2 -109.9 87.6C-120.1 82.1 -133.3 76.3 -139 66.9C-144.7 57.6 -142.7 44.6 -144 32.9C-145.3 21.1 -149.8 10.6 -154.3 0L0 0Z" fill="#923644"></path><path d="M0 77.1C-4.8 72.9 -9.7 68.7 -15.5 68.1C-21.4 67.5 -28.3 70.7 -33 68.6C-37.7 66.5 -40.3 59.3 -43.3 54.3C-46.3 49.3 -49.9 46.6 -55 43.8C-60 41 -66.7 38.2 -69.5 33.5C-72.3 28.8 -71.4 22.3 -72 16.4C-72.6 10.6 -74.9 5.3 -77.1 0L0 0Z" fill="#9a3a3a"></path></g><g transform="translate(0, 540)"><path d="M0 -540C41.8 -540.9 83.6 -541.8 120.2 -526.5C156.7 -511.1 188.1 -479.5 218.7 -454.1C249.2 -428.7 279 -409.5 311.7 -390.9C344.5 -372.3 380.3 -354.2 411.2 -328C442.2 -301.7 468.2 -267.4 475.7 -229.1C483.2 -190.7 472 -148.3 479.7 -109.5C487.3 -70.6 513.6 -35.3 540 0L0 0Z" fill="#232932"></path><path d="M0 -462.9C35.8 -463.6 71.6 -464.4 103 -451.3C134.4 -438.1 161.2 -411 187.4 -389.2C213.6 -367.5 239.1 -351 267.2 -335.1C295.3 -319.1 326 -303.6 352.5 -281.1C379 -258.6 401.4 -229.2 407.8 -196.4C414.2 -163.5 404.6 -127.1 411.1 -93.8C417.7 -60.5 440.3 -30.3 462.9 0L0 0Z" fill="#2e3044"></path><path d="M0 -385.7C29.8 -386.4 59.7 -387 85.8 -376C112 -365.1 134.4 -342.5 156.2 -324.3C178 -306.2 199.3 -292.5 222.7 -279.2C246.1 -265.9 271.7 -253 293.7 -234.3C315.8 -215.5 334.5 -191 339.8 -163.6C345.1 -136.2 337.2 -106 342.6 -78.2C348.1 -50.4 366.9 -25.2 385.7 0L0 0Z" fill="#433351"></path><path d="M0 -308.6C23.9 -309.1 47.8 -309.6 68.7 -300.8C89.6 -292.1 107.5 -274 125 -259.5C142.4 -245 159.4 -234 178.1 -223.4C196.9 -212.7 217.3 -202.4 235 -187.4C252.7 -172.4 267.6 -152.8 271.8 -130.9C276.1 -109 269.7 -84.8 274.1 -62.6C278.4 -40.4 293.5 -20.2 308.6 0L0 0Z" fill="#5f3456"></path><path d="M0 -231.4C17.9 -231.8 35.8 -232.2 51.5 -225.6C67.2 -219 80.6 -205.5 93.7 -194.6C106.8 -183.7 119.6 -175.5 133.6 -167.5C147.6 -159.5 163 -151.8 176.2 -140.6C189.5 -129.3 200.7 -114.6 203.9 -98.2C207.1 -81.7 202.3 -63.6 205.6 -46.9C208.8 -30.3 220.1 -15.1 231.4 0L0 0Z" fill="#7b3351"></path><path d="M0 -154.3C11.9 -154.5 23.9 -154.8 34.3 -150.4C44.8 -146 53.7 -137 62.5 -129.7C71.2 -122.5 79.7 -117 89.1 -111.7C98.4 -106.4 108.7 -101.2 117.5 -93.7C126.3 -86.2 133.8 -76.4 135.9 -65.5C138.1 -54.5 134.9 -42.4 137 -31.3C139.2 -20.2 146.8 -10.1 154.3 0L0 0Z" fill="#923644"></path><path d="M0 -77.1C6 -77.3 11.9 -77.4 17.2 -75.2C22.4 -73 26.9 -68.5 31.2 -64.9C35.6 -61.2 39.9 -58.5 44.5 -55.8C49.2 -53.2 54.3 -50.6 58.7 -46.9C63.2 -43.1 66.9 -38.2 68 -32.7C69 -27.2 67.4 -21.2 68.5 -15.6C69.6 -10.1 73.4 -5 77.1 0L0 0Z" fill="#9a3a3a"></path></g></svg>