<svg id="visual" viewBox="0 0 960 540" width="960" height="540" xmlns="http://www.w3.org/2000/svg" xmlns:xlink="http://www.w3.org/1999/xlink" version="1.1"><g stroke-width="1" stroke-linejoin="bevel"><path d="M476 243L558 427L631 357Z" fill="#001122" stroke="#000"></path><path d="M300 434L565 540L558 427Z" fill="#212529" stroke="#000"></path><path d="M558 427L728 540L631 357Z" fill="#001122" stroke="#000"></path><path d="M476 243L300 434L558 427Z" fill="#151d26" stroke="#000"></path><path d="M565 540L728 540L558 427Z" fill="#0f1924" stroke="#000"></path><path d="M960 230L781 115L631 357Z" fill="#1b2127" stroke="#000"></path><path d="M631 357L781 115L476 243Z" fill="#0c1724" stroke="#000"></path><path d="M300 434L261 540L565 540Z" fill="#0c1724" stroke="#000"></path><path d="M748 0L411 0L476 243Z" fill="#121b25" stroke="#000"></path><path d="M476 243L208 117L300 434Z" fill="#001122" stroke="#000"></path><path d="M300 434L0 540L261 540Z" fill="#001122" stroke="#000"></path><path d="M411 0L208 117L476 243Z" fill="#0c1724" stroke="#000"></path><path d="M781 115L748 0L476 243Z" fill="#151d26" stroke="#000"></path><path d="M411 0L264 0L208 117Z" fill="#0c1724" stroke="#000"></path><path d="M728 540L960 417L631 357Z" fill="#181f27" stroke="#000"></path><path d="M781 115L960 0L748 0Z" fill="#1e2328" stroke="#000"></path><path d="M960 417L960 230L631 357Z" fill="#081523" stroke="#000"></path><path d="M728 540L960 540L960 417Z" fill="#212529" stroke="#000"></path><path d="M0 165L0 298L208 117Z" fill="#151d26" stroke="#000"></path><path d="M208 117L0 298L300 434Z" fill="#081523" stroke="#000"></path><path d="M960 230L960 0L781 115Z" fill="#0c1724" stroke="#000"></path><path d="M0 0L0 165L208 117Z" fill="#121b25" stroke="#000"></path><path d="M0 298L0 540L300 434Z" fill="#0c1724" stroke="#000"></path><path d="M264 0L0 0L208 117Z" fill="#181f27" stroke="#000"></path></g></svg>