<svg id="visual" viewBox="0 0 900 600" width="900" height="600" xmlns="http://www.w3.org/2000/svg" xmlns:xlink="http://www.w3.org/1999/xlink" version="1.1"><g stroke-width="1" stroke-linejoin="bevel"><path d="M458 293L430 286.9L446 306Z" fill="#0c1724" stroke="#000000"></path><path d="M446 306L485 298L458 293Z" fill="#181f27" stroke="#000000"></path><path d="M473 249.3L426 248L430 286.9Z" fill="#212529" stroke="#000000"></path><path d="M473 249.3L430 286.9L458 293Z" fill="#1b2127" stroke="#000000"></path><path d="M485 298L473 249.3L458 293Z" fill="#181f27" stroke="#000000"></path><path d="M485 298L501 274L473 249.3Z" fill="#1e2328" stroke="#000000"></path><path d="M501 274L500 256.1L473 249.3Z" fill="#1b2127" stroke="#000000"></path><path d="M401 234.3L403 238.3L426 248Z" fill="#0c1724" stroke="#000000"></path><path d="M426 248L403 238.3L430 286.9Z" fill="#1b2127" stroke="#000000"></path><path d="M387 342.6L446 306L430 286.9Z" fill="#0f1924" stroke="#000000"></path><path d="M387 342.6L409 353.6L446 306Z" fill="#212529" stroke="#000000"></path><path d="M446 306L496 380.7L485 298Z" fill="#0f1924" stroke="#000000"></path><path d="M397 179.3L401 234.3L426 248Z" fill="#151d26" stroke="#000000"></path><path d="M353 317.1L387 342.6L430 286.9Z" fill="#041323" stroke="#000000"></path><path d="M496 380.7L515 302.7L485 298Z" fill="#1e2328" stroke="#000000"></path><path d="M485 298L515 302.7L501 274Z" fill="#151d26" stroke="#000000"></path><path d="M569 267.1L541 221.6L500 256.1Z" fill="#181f27" stroke="#000000"></path><path d="M354 265.9L430 286.9L403 238.3Z" fill="#001122" stroke="#000000"></path><path d="M387 342.6L395 350.6L409 353.6Z" fill="#181f27" stroke="#000000"></path><path d="M351 254.4L354 265.9L403 238.3Z" fill="#151d26" stroke="#000000"></path><path d="M354 265.9L353 317.1L430 286.9Z" fill="#212529" stroke="#000000"></path><path d="M343 355.7L414 403.9L395 350.6Z" fill="#121b25" stroke="#000000"></path><path d="M401 234.3L351 254.4L403 238.3Z" fill="#081523" stroke="#000000"></path><path d="M354 265.9L329 303.7L353 317.1Z" fill="#0c1724" stroke="#000000"></path><path d="M468 405.6L496 380.7L409 353.6Z" fill="#081523" stroke="#000000"></path><path d="M409 353.6L496 380.7L446 306Z" fill="#121b25" stroke="#000000"></path><path d="M319 254.1L329 303.7L354 265.9Z" fill="#041323" stroke="#000000"></path><path d="M343 355.7L395 350.6L387 342.6Z" fill="#1e2328" stroke="#000000"></path><path d="M343 355.7L387 342.6L353 317.1Z" fill="#181f27" stroke="#000000"></path><path d="M395 350.6L414 403.9L409 353.6Z" fill="#0c1724" stroke="#000000"></path><path d="M414 403.9L468 405.6L409 353.6Z" fill="#081523" stroke="#000000"></path><path d="M329 303.7L343 355.7L353 317.1Z" fill="#041323" stroke="#000000"></path><path d="M500 256.1L479 177.6L473 249.3Z" fill="#121b25" stroke="#000000"></path><path d="M473 249.3L479 177.6L426 248Z" fill="#121b25" stroke="#000000"></path><path d="M346 215.3L331 241.1L351 254.4Z" fill="#1e2328" stroke="#000000"></path><path d="M541 221.6L479 177.6L500 256.1Z" fill="#1b2127" stroke="#000000"></path><path d="M569 267.1L501 274L515 302.7Z" fill="#181f27" stroke="#000000"></path><path d="M569 267.1L500 256.1L501 274Z" fill="#0f1924" stroke="#000000"></path><path d="M407 167.6L397 179.3L426 248Z" fill="#041323" stroke="#000000"></path><path d="M346 215.3L351 254.4L401 234.3Z" fill="#0f1924" stroke="#000000"></path><path d="M351 254.4L319 254.1L354 265.9Z" fill="#001122" stroke="#000000"></path><path d="M385 176.7L346 215.3L401 234.3Z" fill="#1b2127" stroke="#000000"></path><path d="M595 361.7L569 267.1L515 302.7Z" fill="#181f27" stroke="#000000"></path><path d="M407 167.6L385 176.7L397 179.3Z" fill="#081523" stroke="#000000"></path><path d="M397 179.3L385 176.7L401 234.3Z" fill="#151d26" stroke="#000000"></path><path d="M479 177.6L407 167.6L426 248Z" fill="#212529" stroke="#000000"></path><path d="M535 169.3L486 169.3L479 177.6Z" fill="#212529" stroke="#000000"></path><path d="M479 177.6L437 112.6L407 167.6Z" fill="#1e2328" stroke="#000000"></path><path d="M259 218L319 254.1L331 241.1Z" fill="#181f27" stroke="#000000"></path><path d="M331 241.1L319 254.1L351 254.4Z" fill="#151d26" stroke="#000000"></path><path d="M569 267.1L572 250.1L541 221.6Z" fill="#212529" stroke="#000000"></path><path d="M535 169.3L508 158.7L486 169.3Z" fill="#041323" stroke="#000000"></path><path d="M414 403.9L458 426.9L468 405.6Z" fill="#081523" stroke="#000000"></path><path d="M468 405.6L537 403.4L496 380.7Z" fill="#121b25" stroke="#000000"></path><path d="M385 176.7L337 206.1L346 215.3Z" fill="#081523" stroke="#000000"></path><path d="M346 215.3L337 206.1L331 241.1Z" fill="#181f27" stroke="#000000"></path><path d="M589 261L579 259.3L569 267.1Z" fill="#001122" stroke="#000000"></path><path d="M569 267.1L579 259.3L572 250.1Z" fill="#121b25" stroke="#000000"></path><path d="M458 426.9L537 403.4L468 405.6Z" fill="#1e2328" stroke="#000000"></path><path d="M496 380.7L553 397.7L515 302.7Z" fill="#0f1924" stroke="#000000"></path><path d="M535 169.3L479 177.6L541 221.6Z" fill="#0f1924" stroke="#000000"></path><path d="M452 111.9L437 112.6L479 177.6Z" fill="#0f1924" stroke="#000000"></path><path d="M535 169.3L541 221.6L555 180.7Z" fill="#001122" stroke="#000000"></path><path d="M612 345.1L589 261L569 267.1Z" fill="#121b25" stroke="#000000"></path><path d="M579 259.3L589 261L572 250.1Z" fill="#041323" stroke="#000000"></path><path d="M537 403.4L553 397.7L496 380.7Z" fill="#0c1724" stroke="#000000"></path><path d="M578 210.6L541 221.6L572 250.1Z" fill="#151d26" stroke="#000000"></path><path d="M622 230.3L578 210.6L572 250.1Z" fill="#001122" stroke="#000000"></path><path d="M578 210.6L555 180.7L541 221.6Z" fill="#151d26" stroke="#000000"></path><path d="M553 397.7L595 361.7L515 302.7Z" fill="#212529" stroke="#000000"></path><path d="M259 306L302 391L343 355.7Z" fill="#1e2328" stroke="#000000"></path><path d="M361 450.7L382 454.7L414 403.9Z" fill="#212529" stroke="#000000"></path><path d="M414 403.9L382 454.7L458 426.9Z" fill="#181f27" stroke="#000000"></path><path d="M259 306L343 355.7L329 303.7Z" fill="#081523" stroke="#000000"></path><path d="M361 450.7L414 403.9L343 355.7Z" fill="#0c1724" stroke="#000000"></path><path d="M458 426.9L453 469.3L537 403.4Z" fill="#081523" stroke="#000000"></path><path d="M595 361.7L612 345.1L569 267.1Z" fill="#181f27" stroke="#000000"></path><path d="M589 261L622 230.3L572 250.1Z" fill="#0c1724" stroke="#000000"></path><path d="M382 454.7L453 469.3L458 426.9Z" fill="#041323" stroke="#000000"></path><path d="M537 403.4L578 426.3L553 397.7Z" fill="#1e2328" stroke="#000000"></path><path d="M322 434.9L361 450.7L343 355.7Z" fill="#151d26" stroke="#000000"></path><path d="M382 454.7L446 489.6L453 469.3Z" fill="#041323" stroke="#000000"></path><path d="M452 111.9L486 169.3L505 109.4Z" fill="#0f1924" stroke="#000000"></path><path d="M452 111.9L479 177.6L486 169.3Z" fill="#212529" stroke="#000000"></path><path d="M357 108.4L320 134.4L385 176.7Z" fill="#0f1924" stroke="#000000"></path><path d="M309 147.4L288 173.4L337 206.1Z" fill="#041323" stroke="#000000"></path><path d="M486 169.3L508 158.7L505 109.4Z" fill="#1b2127" stroke="#000000"></path><path d="M505 109.4L508 158.7L553 126.4Z" fill="#121b25" stroke="#000000"></path><path d="M259 218L259 306L319 254.1Z" fill="#121b25" stroke="#000000"></path><path d="M319 254.1L259 306L329 303.7Z" fill="#151d26" stroke="#000000"></path><path d="M302 391L322 434.9L343 355.7Z" fill="#081523" stroke="#000000"></path><path d="M308 431.9L322 434.9L302 391Z" fill="#212529" stroke="#000000"></path><path d="M628 380.4L612 345.1L595 361.7Z" fill="#181f27" stroke="#000000"></path><path d="M628 380.4L624 345.9L612 345.1Z" fill="#1e2328" stroke="#000000"></path><path d="M612 345.1L624 345.9L589 261Z" fill="#121b25" stroke="#000000"></path><path d="M624 345.9L622 230.3L589 261Z" fill="#121b25" stroke="#000000"></path><path d="M578 210.6L583 159.7L555 180.7Z" fill="#1e2328" stroke="#000000"></path><path d="M594 472.6L578 426.3L543 525.1Z" fill="#1b2127" stroke="#000000"></path><path d="M553 397.7L618 399.4L595 361.7Z" fill="#1e2328" stroke="#000000"></path><path d="M622 230.3L617 211.4L578 210.6Z" fill="#1e2328" stroke="#000000"></path><path d="M555 180.7L583 159.7L535 169.3Z" fill="#151d26" stroke="#000000"></path><path d="M617 199.3L583 159.7L578 210.6Z" fill="#0f1924" stroke="#000000"></path><path d="M553 126.4L508 158.7L535 169.3Z" fill="#181f27" stroke="#000000"></path><path d="M266 430.3L308 431.9L302 391Z" fill="#121b25" stroke="#000000"></path><path d="M322 434.9L328 458.3L361 450.7Z" fill="#212529" stroke="#000000"></path><path d="M309 147.4L337 206.1L320 134.4Z" fill="#151d26" stroke="#000000"></path><path d="M337 206.1L259 218L331 241.1Z" fill="#151d26" stroke="#000000"></path><path d="M642 181.1L617 199.3L663 207Z" fill="#1b2127" stroke="#000000"></path><path d="M617 211.4L617 199.3L578 210.6Z" fill="#0f1924" stroke="#000000"></path><path d="M320 134.4L337 206.1L385 176.7Z" fill="#001122" stroke="#000000"></path><path d="M419 537.4L446 489.6L382 454.7Z" fill="#121b25" stroke="#000000"></path><path d="M543 525.1L578 426.3L537 403.4Z" fill="#081523" stroke="#000000"></path><path d="M354 478.1L382 454.7L361 450.7Z" fill="#001122" stroke="#000000"></path><path d="M583 159.7L553 126.4L535 169.3Z" fill="#0f1924" stroke="#000000"></path><path d="M288 173.4L259 218L337 206.1Z" fill="#081523" stroke="#000000"></path><path d="M357 108.4L385 176.7L407 167.6Z" fill="#151d26" stroke="#000000"></path><path d="M452 111.9L441 90.9L437 112.6Z" fill="#151d26" stroke="#000000"></path><path d="M437 112.6L357 108.4L407 167.6Z" fill="#181f27" stroke="#000000"></path><path d="M505 109.4L441 90.9L452 111.9Z" fill="#121b25" stroke="#000000"></path><path d="M288 173.4L257 215.6L259 218Z" fill="#1b2127" stroke="#000000"></path><path d="M259 218L195 275L259 306Z" fill="#081523" stroke="#000000"></path><path d="M308 431.9L328 458.3L322 434.9Z" fill="#1e2328" stroke="#000000"></path><path d="M390 66.9L357 108.4L437 112.6Z" fill="#001122" stroke="#000000"></path><path d="M618 399.4L628 380.4L595 361.7Z" fill="#081523" stroke="#000000"></path><path d="M673 216.1L663 207L622 230.3Z" fill="#0c1724" stroke="#000000"></path><path d="M617 199.3L593 151.6L583 159.7Z" fill="#181f27" stroke="#000000"></path><path d="M583 159.7L575 118.7L553 126.4Z" fill="#1e2328" stroke="#000000"></path><path d="M578 426.3L618 399.4L553 397.7Z" fill="#212529" stroke="#000000"></path><path d="M328 458.3L354 478.1L361 450.7Z" fill="#121b25" stroke="#000000"></path><path d="M254 143.6L292 148.7L309 76.9Z" fill="#001122" stroke="#000000"></path><path d="M320 134.4L292 148.7L309 147.4Z" fill="#181f27" stroke="#000000"></path><path d="M309 147.4L292 148.7L288 173.4Z" fill="#0f1924" stroke="#000000"></path><path d="M288 173.4L275 164.4L257 215.6Z" fill="#212529" stroke="#000000"></path><path d="M644 375.9L640 367.6L628 380.4Z" fill="#151d26" stroke="#000000"></path><path d="M628 380.4L640 367.6L624 345.9Z" fill="#1e2328" stroke="#000000"></path><path d="M292 148.7L275 164.4L288 173.4Z" fill="#1b2127" stroke="#000000"></path><path d="M593 151.6L575 118.7L583 159.7Z" fill="#1e2328" stroke="#000000"></path><path d="M553 126.4L523 86.9L505 109.4Z" fill="#041323" stroke="#000000"></path><path d="M505 109.4L519 69.7L441 90.9Z" fill="#0c1724" stroke="#000000"></path><path d="M618 399.4L644 375.9L628 380.4Z" fill="#001122" stroke="#000000"></path><path d="M663 207L617 211.4L622 230.3Z" fill="#181f27" stroke="#000000"></path><path d="M577 89.4L523 86.9L553 126.4Z" fill="#0c1724" stroke="#000000"></path><path d="M308 431.9L316 476.1L328 458.3Z" fill="#0c1724" stroke="#000000"></path><path d="M328 458.3L316 476.1L354 478.1Z" fill="#151d26" stroke="#000000"></path><path d="M419 537.4L442 528.4L446 489.6Z" fill="#1e2328" stroke="#000000"></path><path d="M257 462.7L316 476.1L308 431.9Z" fill="#151d26" stroke="#000000"></path><path d="M242 419.7L266 430.3L302 391Z" fill="#151d26" stroke="#000000"></path><path d="M240 154.7L238 198.4L275 164.4Z" fill="#181f27" stroke="#000000"></path><path d="M275 164.4L238 198.4L257 215.6Z" fill="#1b2127" stroke="#000000"></path><path d="M185 234.3L195 275L259 218Z" fill="#181f27" stroke="#000000"></path><path d="M259 306L221 357.9L302 391Z" fill="#1b2127" stroke="#000000"></path><path d="M663 207L617 199.3L617 211.4Z" fill="#081523" stroke="#000000"></path><path d="M617 199.3L642 181.1L593 151.6Z" fill="#001122" stroke="#000000"></path><path d="M593 151.6L590 103.7L575 118.7Z" fill="#121b25" stroke="#000000"></path><path d="M622 230.3L704 330.9L673 216.1Z" fill="#181f27" stroke="#000000"></path><path d="M357 108.4L340 86.7L320 134.4Z" fill="#1b2127" stroke="#000000"></path><path d="M292 148.7L254 143.6L275 164.4Z" fill="#181f27" stroke="#000000"></path><path d="M390 66.9L340 86.7L357 108.4Z" fill="#081523" stroke="#000000"></path><path d="M390 66.9L437 112.6L441 90.9Z" fill="#081523" stroke="#000000"></path><path d="M397 0L390 66.9L441 90.9Z" fill="#1e2328" stroke="#000000"></path><path d="M186 293.9L221 357.9L259 306Z" fill="#1b2127" stroke="#000000"></path><path d="M577 89.4L519 69.7L523 86.9Z" fill="#1e2328" stroke="#000000"></path><path d="M523 86.9L519 69.7L505 109.4Z" fill="#181f27" stroke="#000000"></path><path d="M543 525.1L537 403.4L453 469.3Z" fill="#0c1724" stroke="#000000"></path><path d="M578 426.3L634 434.3L618 399.4Z" fill="#121b25" stroke="#000000"></path><path d="M618 399.4L670 386.7L644 375.9Z" fill="#041323" stroke="#000000"></path><path d="M622 230.3L624 345.9L704 330.9Z" fill="#0f1924" stroke="#000000"></path><path d="M419 537.4L382 454.7L354 478.1Z" fill="#212529" stroke="#000000"></path><path d="M446 489.6L543 525.1L453 469.3Z" fill="#0f1924" stroke="#000000"></path><path d="M609 469.1L634 434.3L578 426.3Z" fill="#041323" stroke="#000000"></path><path d="M656 158.3L590 103.7L593 151.6Z" fill="#001122" stroke="#000000"></path><path d="M575 118.7L577 89.4L553 126.4Z" fill="#0f1924" stroke="#000000"></path><path d="M656 158.3L593 151.6L642 181.1Z" fill="#081523" stroke="#000000"></path><path d="M221 357.9L242 419.7L302 391Z" fill="#212529" stroke="#000000"></path><path d="M283 493.1L330 504.4L316 476.1Z" fill="#212529" stroke="#000000"></path><path d="M309 76.9L292 148.7L320 134.4Z" fill="#181f27" stroke="#000000"></path><path d="M257 462.7L308 431.9L266 430.3Z" fill="#081523" stroke="#000000"></path><path d="M316 476.1L330 504.4L354 478.1Z" fill="#001122" stroke="#000000"></path><path d="M704 330.9L624 345.9L640 367.6Z" fill="#1b2127" stroke="#000000"></path><path d="M663 207L656 158.3L642 181.1Z" fill="#0f1924" stroke="#000000"></path><path d="M670 386.7L640 367.6L644 375.9Z" fill="#181f27" stroke="#000000"></path><path d="M590 103.7L577 89.4L575 118.7Z" fill="#212529" stroke="#000000"></path><path d="M632 511.4L609 469.1L594 472.6Z" fill="#121b25" stroke="#000000"></path><path d="M594 472.6L609 469.1L578 426.3Z" fill="#001122" stroke="#000000"></path><path d="M242 419.7L254 446.6L266 430.3Z" fill="#1b2127" stroke="#000000"></path><path d="M254 143.6L240 154.7L275 164.4Z" fill="#0c1724" stroke="#000000"></path><path d="M185 234.3L259 218L257 215.6Z" fill="#081523" stroke="#000000"></path><path d="M684 421.9L670 386.7L634 434.3Z" fill="#1b2127" stroke="#000000"></path><path d="M634 434.3L670 386.7L618 399.4Z" fill="#0f1924" stroke="#000000"></path><path d="M368 564.4L419 537.4L354 478.1Z" fill="#0f1924" stroke="#000000"></path><path d="M467 555.3L543 525.1L446 489.6Z" fill="#1b2127" stroke="#000000"></path><path d="M240 154.7L219 185.3L238 198.4Z" fill="#0f1924" stroke="#000000"></path><path d="M185 234.3L257 215.6L238 198.4Z" fill="#181f27" stroke="#000000"></path><path d="M221 357.9L209 379.4L242 419.7Z" fill="#121b25" stroke="#000000"></path><path d="M228 448.7L257 462.7L254 446.6Z" fill="#212529" stroke="#000000"></path><path d="M186 293.9L209 379.4L221 357.9Z" fill="#1b2127" stroke="#000000"></path><path d="M687 200.4L656 158.3L663 207Z" fill="#121b25" stroke="#000000"></path><path d="M590 103.7L591 62.6L577 89.4Z" fill="#212529" stroke="#000000"></path><path d="M254 446.6L257 462.7L266 430.3Z" fill="#1e2328" stroke="#000000"></path><path d="M227 436.9L254 446.6L242 419.7Z" fill="#041323" stroke="#000000"></path><path d="M297 0L309 76.9L340 86.7Z" fill="#081523" stroke="#000000"></path><path d="M340 86.7L309 76.9L320 134.4Z" fill="#001122" stroke="#000000"></path><path d="M166 179.1L203 174.3L139 131.6Z" fill="#0f1924" stroke="#000000"></path><path d="M467 555.3L446 489.6L442 528.4Z" fill="#0f1924" stroke="#000000"></path><path d="M257 462.7L283 493.1L316 476.1Z" fill="#212529" stroke="#000000"></path><path d="M330 504.4L368 564.4L354 478.1Z" fill="#151d26" stroke="#000000"></path><path d="M179 283.1L186 293.9L195 275Z" fill="#1b2127" stroke="#000000"></path><path d="M195 275L186 293.9L259 306Z" fill="#121b25" stroke="#000000"></path><path d="M714 195.4L687 200.4L673 216.1Z" fill="#0c1724" stroke="#000000"></path><path d="M673 216.1L687 200.4L663 207Z" fill="#0f1924" stroke="#000000"></path><path d="M189 394.9L227 436.9L242 419.7Z" fill="#151d26" stroke="#000000"></path><path d="M257 462.7L280 497.6L283 493.1Z" fill="#151d26" stroke="#000000"></path><path d="M271 525.3L280 497.6L255 531.3Z" fill="#0f1924" stroke="#000000"></path><path d="M283 493.1L309 523.6L330 504.4Z" fill="#181f27" stroke="#000000"></path><path d="M670 386.7L704 330.9L640 367.6Z" fill="#001122" stroke="#000000"></path><path d="M439 580.1L442 528.4L419 537.4Z" fill="#181f27" stroke="#000000"></path><path d="M439 580.1L467 555.3L442 528.4Z" fill="#0f1924" stroke="#000000"></path><path d="M181 256.4L179 283.1L195 275Z" fill="#121b25" stroke="#000000"></path><path d="M186 293.9L189 394.9L209 379.4Z" fill="#181f27" stroke="#000000"></path><path d="M219 185.3L185 234.3L238 198.4Z" fill="#121b25" stroke="#000000"></path><path d="M203 174.3L185 234.3L219 185.3Z" fill="#081523" stroke="#000000"></path><path d="M185 234.3L181 256.4L195 275Z" fill="#121b25" stroke="#000000"></path><path d="M182 472.6L228 448.7L227 436.9Z" fill="#0f1924" stroke="#000000"></path><path d="M227 436.9L228 448.7L254 446.6Z" fill="#0f1924" stroke="#000000"></path><path d="M189 394.9L242 419.7L209 379.4Z" fill="#1b2127" stroke="#000000"></path><path d="M203 174.3L240 154.7L190 85.6Z" fill="#0f1924" stroke="#000000"></path><path d="M240 154.7L203 174.3L219 185.3Z" fill="#181f27" stroke="#000000"></path><path d="M280 497.6L309 523.6L283 493.1Z" fill="#212529" stroke="#000000"></path><path d="M181 256.4L127 291L179 283.1Z" fill="#1e2328" stroke="#000000"></path><path d="M185 234.3L177 244.1L181 256.4Z" fill="#181f27" stroke="#000000"></path><path d="M154 221.6L177 244.1L185 234.3Z" fill="#1e2328" stroke="#000000"></path><path d="M614 47.6L590 103.7L694 73.7Z" fill="#1b2127" stroke="#000000"></path><path d="M614 47.6L591 62.6L590 103.7Z" fill="#0c1724" stroke="#000000"></path><path d="M577 89.4L591 62.6L519 69.7Z" fill="#1e2328" stroke="#000000"></path><path d="M501 0L397 0L441 90.9Z" fill="#151d26" stroke="#000000"></path><path d="M681 445.6L684 421.9L634 434.3Z" fill="#121b25" stroke="#000000"></path><path d="M728 353L725 342L704 330.9Z" fill="#0f1924" stroke="#000000"></path><path d="M681 445.6L634 434.3L677 488.4Z" fill="#212529" stroke="#000000"></path><path d="M176 412.4L189 394.9L108 321Z" fill="#0f1924" stroke="#000000"></path><path d="M677 488.4L634 434.3L609 469.1Z" fill="#151d26" stroke="#000000"></path><path d="M728 353L704 330.9L670 386.7Z" fill="#1b2127" stroke="#000000"></path><path d="M309 523.6L368 564.4L330 504.4Z" fill="#0c1724" stroke="#000000"></path><path d="M728 353L670 386.7L684 421.9Z" fill="#121b25" stroke="#000000"></path><path d="M769 263.3L714 195.4L673 216.1Z" fill="#001122" stroke="#000000"></path><path d="M467 555.3L516 568.3L543 525.1Z" fill="#081523" stroke="#000000"></path><path d="M627 522.6L632 511.4L594 472.6Z" fill="#0c1724" stroke="#000000"></path><path d="M507 599.3L516 568.3L467 555.3Z" fill="#121b25" stroke="#000000"></path><path d="M316 600L368 568.1L368 564.4Z" fill="#121b25" stroke="#000000"></path><path d="M368 564.4L368 568.1L419 537.4Z" fill="#212529" stroke="#000000"></path><path d="M724 192.6L714 195.4L769 263.3Z" fill="#0f1924" stroke="#000000"></path><path d="M687 200.4L714 183.4L656 158.3Z" fill="#0f1924" stroke="#000000"></path><path d="M401 600L439 580.1L419 537.4Z" fill="#0c1724" stroke="#000000"></path><path d="M627 522.6L594 472.6L543 525.1Z" fill="#212529" stroke="#000000"></path><path d="M280 497.6L271 525.3L309 523.6Z" fill="#001122" stroke="#000000"></path><path d="M309 523.6L316 600L368 564.4Z" fill="#041323" stroke="#000000"></path><path d="M255 531.3L280 497.6L257 462.7Z" fill="#181f27" stroke="#000000"></path><path d="M255 531.3L257 462.7L182 472.6Z" fill="#1b2127" stroke="#000000"></path><path d="M749 349L777 373.9L777 357.7Z" fill="#1e2328" stroke="#000000"></path><path d="M769 263.3L673 216.1L704 330.9Z" fill="#212529" stroke="#000000"></path><path d="M724 192.6L714 183.4L714 195.4Z" fill="#041323" stroke="#000000"></path><path d="M714 195.4L714 183.4L687 200.4Z" fill="#1b2127" stroke="#000000"></path><path d="M591 62.6L542 16.9L519 69.7Z" fill="#1e2328" stroke="#000000"></path><path d="M390 66.9L297 0L340 86.7Z" fill="#1b2127" stroke="#000000"></path><path d="M177 244.1L127 291L181 256.4Z" fill="#081523" stroke="#000000"></path><path d="M108 321L189 394.9L186 293.9Z" fill="#121b25" stroke="#000000"></path><path d="M203 174.3L162 212.4L185 234.3Z" fill="#0c1724" stroke="#000000"></path><path d="M127 291L186 293.9L179 283.1Z" fill="#1b2127" stroke="#000000"></path><path d="M189 394.9L176 412.4L227 436.9Z" fill="#151d26" stroke="#000000"></path><path d="M574 600L627 522.6L543 525.1Z" fill="#081523" stroke="#000000"></path><path d="M632 511.4L677 488.4L609 469.1Z" fill="#1b2127" stroke="#000000"></path><path d="M501 0L441 90.9L519 69.7Z" fill="#0c1724" stroke="#000000"></path><path d="M542 16.9L501 0L519 69.7Z" fill="#041323" stroke="#000000"></path><path d="M769 263.3L704 330.9L725 342Z" fill="#081523" stroke="#000000"></path><path d="M694 73.7L590 103.7L656 158.3Z" fill="#212529" stroke="#000000"></path><path d="M702 122.6L656 158.3L714 183.4Z" fill="#151d26" stroke="#000000"></path><path d="M581 0L551 0L542 16.9Z" fill="#041323" stroke="#000000"></path><path d="M162 212.4L154 221.6L185 234.3Z" fill="#0f1924" stroke="#000000"></path><path d="M217 73.9L240 154.7L254 143.6Z" fill="#001122" stroke="#000000"></path><path d="M203 174.3L166 179.1L162 212.4Z" fill="#0f1924" stroke="#000000"></path><path d="M162 212.4L109 186.1L154 221.6Z" fill="#0f1924" stroke="#000000"></path><path d="M217 73.9L254 143.6L309 76.9Z" fill="#151d26" stroke="#000000"></path><path d="M551 0L529 0L542 16.9Z" fill="#1e2328" stroke="#000000"></path><path d="M542 16.9L529 0L501 0Z" fill="#0f1924" stroke="#000000"></path><path d="M182 472.6L257 462.7L228 448.7Z" fill="#181f27" stroke="#000000"></path><path d="M271 525.3L274 558.4L309 523.6Z" fill="#181f27" stroke="#000000"></path><path d="M627 522.6L677 488.4L632 511.4Z" fill="#1b2127" stroke="#000000"></path><path d="M771 345.1L749 349L777 357.7Z" fill="#0c1724" stroke="#000000"></path><path d="M428 600L453 600L439 580.1Z" fill="#1e2328" stroke="#000000"></path><path d="M439 580.1L468 600L467 555.3Z" fill="#1b2127" stroke="#000000"></path><path d="M516 568.3L574 600L543 525.1Z" fill="#041323" stroke="#000000"></path><path d="M428 600L439 580.1L401 600Z" fill="#121b25" stroke="#000000"></path><path d="M401 600L419 537.4L368 568.1Z" fill="#1e2328" stroke="#000000"></path><path d="M724 100.6L702 122.6L714 183.4Z" fill="#0f1924" stroke="#000000"></path><path d="M453 600L468 600L439 580.1Z" fill="#181f27" stroke="#000000"></path><path d="M728 353L684 421.9L768 402.9Z" fill="#212529" stroke="#000000"></path><path d="M728 353L749 349L725 342Z" fill="#212529" stroke="#000000"></path><path d="M581 0L542 16.9L591 62.6Z" fill="#212529" stroke="#000000"></path><path d="M316 600L401 600L368 568.1Z" fill="#181f27" stroke="#000000"></path><path d="M468 600L507 599.3L467 555.3Z" fill="#1e2328" stroke="#000000"></path><path d="M235 39.7L217 73.9L309 76.9Z" fill="#041323" stroke="#000000"></path><path d="M255 531.3L274 558.4L271 525.3Z" fill="#0c1724" stroke="#000000"></path><path d="M108 321L31 264.1L53 345.6Z" fill="#0f1924" stroke="#000000"></path><path d="M154 221.6L127 291L177 244.1Z" fill="#0c1724" stroke="#000000"></path><path d="M501 0L380 -19.1L397 0Z" fill="#001122" stroke="#000000"></path><path d="M397 0L297 0L390 66.9Z" fill="#151d26" stroke="#000000"></path><path d="M593 -51.1L380 -19.1L501 0Z" fill="#0f1924" stroke="#000000"></path><path d="M593 -51.1L501 0L529 0Z" fill="#081523" stroke="#000000"></path><path d="M164 483.4L182 472.6L140 448.6Z" fill="#001122" stroke="#000000"></path><path d="M176 412.4L182 472.6L227 436.9Z" fill="#151d26" stroke="#000000"></path><path d="M255 531.3L218 544.4L274 558.4Z" fill="#081523" stroke="#000000"></path><path d="M614 47.6L581 0L591 62.6Z" fill="#212529" stroke="#000000"></path><path d="M551 0L593 -51.1L529 0Z" fill="#041323" stroke="#000000"></path><path d="M600 0L581 0L614 47.6Z" fill="#1e2328" stroke="#000000"></path><path d="M380 -19.1L297 0L397 0Z" fill="#181f27" stroke="#000000"></path><path d="M791 293L769 263.3L725 342Z" fill="#0c1724" stroke="#000000"></path><path d="M724 192.6L724 100.6L714 183.4Z" fill="#001122" stroke="#000000"></path><path d="M169 64.9L190 85.6L217 73.9Z" fill="#041323" stroke="#000000"></path><path d="M217 73.9L190 85.6L240 154.7Z" fill="#0c1724" stroke="#000000"></path><path d="M109 186.1L127 291L154 221.6Z" fill="#1e2328" stroke="#000000"></path><path d="M279 0L235 39.7L309 76.9Z" fill="#1e2328" stroke="#000000"></path><path d="M608 0L600 0L614 47.6Z" fill="#1b2127" stroke="#000000"></path><path d="M581 0L598 -19.1L551 0Z" fill="#001122" stroke="#000000"></path><path d="M729 472.4L684 421.9L681 445.6Z" fill="#041323" stroke="#000000"></path><path d="M749 349L791 293L725 342Z" fill="#001122" stroke="#000000"></path><path d="M702 122.6L694 73.7L656 158.3Z" fill="#001122" stroke="#000000"></path><path d="M724 100.6L694 73.7L702 122.6Z" fill="#0f1924" stroke="#000000"></path><path d="M268 -14.1L285 0L297 0Z" fill="#1b2127" stroke="#000000"></path><path d="M297 0L285 0L309 76.9Z" fill="#0f1924" stroke="#000000"></path><path d="M274 558.4L316 600L309 523.6Z" fill="#001122" stroke="#000000"></path><path d="M303 600L316 600L274 558.4Z" fill="#081523" stroke="#000000"></path><path d="M601 607.1L574 600L608 644.1Z" fill="#181f27" stroke="#000000"></path><path d="M507 599.3L574 600L516 568.3Z" fill="#081523" stroke="#000000"></path><path d="M734 523.3L729 472.4L677 488.4Z" fill="#041323" stroke="#000000"></path><path d="M636 -17.1L608 0L614 47.6Z" fill="#212529" stroke="#000000"></path><path d="M600 0L598 -19.1L581 0Z" fill="#212529" stroke="#000000"></path><path d="M268 -14.1L279 0L285 0Z" fill="#1b2127" stroke="#000000"></path><path d="M285 0L279 0L309 76.9Z" fill="#0c1724" stroke="#000000"></path><path d="M109 186.1L162 212.4L166 179.1Z" fill="#1b2127" stroke="#000000"></path><path d="M127 291L108 321L186 293.9Z" fill="#001122" stroke="#000000"></path><path d="M734 523.3L677 488.4L627 522.6Z" fill="#0c1724" stroke="#000000"></path><path d="M677 488.4L729 472.4L681 445.6Z" fill="#212529" stroke="#000000"></path><path d="M182 472.6L218 544.4L255 531.3Z" fill="#121b25" stroke="#000000"></path><path d="M286 600L303 600L274 558.4Z" fill="#041323" stroke="#000000"></path><path d="M140 448.6L182 472.6L176 412.4Z" fill="#0c1724" stroke="#000000"></path><path d="M182 472.6L164 483.4L218 544.4Z" fill="#212529" stroke="#000000"></path><path d="M809 120.3L724 100.6L724 192.6Z" fill="#1e2328" stroke="#000000"></path><path d="M768 402.9L749 349L728 353Z" fill="#1b2127" stroke="#000000"></path><path d="M771 345.1L791 293L749 349Z" fill="#001122" stroke="#000000"></path><path d="M79 418.3L140 448.6L176 412.4Z" fill="#212529" stroke="#000000"></path><path d="M753 447.7L768 402.9L684 421.9Z" fill="#0c1724" stroke="#000000"></path><path d="M768 402.9L777 373.9L749 349Z" fill="#0c1724" stroke="#000000"></path><path d="M140 109.9L139 131.6L190 85.6Z" fill="#001122" stroke="#000000"></path><path d="M190 85.6L139 131.6L203 174.3Z" fill="#001122" stroke="#000000"></path><path d="M574 600L598 600L627 522.6Z" fill="#0c1724" stroke="#000000"></path><path d="M808 257.1L780 210.1L769 263.3Z" fill="#081523" stroke="#000000"></path><path d="M769 263.3L780 210.1L724 192.6Z" fill="#121b25" stroke="#000000"></path><path d="M791 293L771 345.1L803 327Z" fill="#151d26" stroke="#000000"></path><path d="M258 599.1L286 600L274 558.4Z" fill="#121b25" stroke="#000000"></path><path d="M729 472.4L753 447.7L684 421.9Z" fill="#212529" stroke="#000000"></path><path d="M598 600L602 600L627 522.6Z" fill="#0c1724" stroke="#000000"></path><path d="M636 -17.1L614 47.6L679 0Z" fill="#151d26" stroke="#000000"></path><path d="M636 -17.1L598 -19.1L608 0Z" fill="#1e2328" stroke="#000000"></path><path d="M608 0L598 -19.1L600 0Z" fill="#181f27" stroke="#000000"></path><path d="M803 327L771 345.1L777 357.7Z" fill="#212529" stroke="#000000"></path><path d="M139 131.6L109 186.1L166 179.1Z" fill="#0c1724" stroke="#000000"></path><path d="M608 644.1L574 600L507 599.3Z" fill="#1b2127" stroke="#000000"></path><path d="M574 600L601 607.1L598 600Z" fill="#1e2328" stroke="#000000"></path><path d="M598 600L601 607.1L602 600Z" fill="#151d26" stroke="#000000"></path><path d="M602 600L619 600L627 522.6Z" fill="#121b25" stroke="#000000"></path><path d="M819 452.7L779 425.7L808 484.1Z" fill="#1b2127" stroke="#000000"></path><path d="M608 644.1L507 599.3L468 600Z" fill="#151d26" stroke="#000000"></path><path d="M608 644.1L468 600L453 600Z" fill="#0c1724" stroke="#000000"></path><path d="M608 644.1L453 600L428 600Z" fill="#001122" stroke="#000000"></path><path d="M608 644.1L428 600L401 600Z" fill="#121b25" stroke="#000000"></path><path d="M608 644.1L401 600L316 600Z" fill="#1b2127" stroke="#000000"></path><path d="M608 644.1L316 600L88 643.1Z" fill="#1b2127" stroke="#000000"></path><path d="M279 0L233 0L235 39.7Z" fill="#0f1924" stroke="#000000"></path><path d="M169 64.9L140 109.9L190 85.6Z" fill="#151d26" stroke="#000000"></path><path d="M380 -19.1L268 -14.1L297 0Z" fill="#0c1724" stroke="#000000"></path><path d="M169 64.9L217 73.9L181 29.9Z" fill="#081523" stroke="#000000"></path><path d="M139 131.6L51 156.3L109 186.1Z" fill="#041323" stroke="#000000"></path><path d="M601 607.1L619 600L602 600Z" fill="#181f27" stroke="#000000"></path><path d="M181 29.9L217 73.9L235 39.7Z" fill="#0c1724" stroke="#000000"></path><path d="M218 544.4L258 599.1L274 558.4Z" fill="#121b25" stroke="#000000"></path><path d="M212 591.3L258 599.1L218 544.4Z" fill="#151d26" stroke="#000000"></path><path d="M268 -14.1L233 0L279 0Z" fill="#0f1924" stroke="#000000"></path><path d="M831 424.3L803 327L777 373.9Z" fill="#181f27" stroke="#000000"></path><path d="M777 373.9L803 327L777 357.7Z" fill="#121b25" stroke="#000000"></path><path d="M791 293L808 257.1L769 263.3Z" fill="#1e2328" stroke="#000000"></path><path d="M831 424.3L777 373.9L768 402.9Z" fill="#212529" stroke="#000000"></path><path d="M782 494.1L753 447.7L729 472.4Z" fill="#181f27" stroke="#000000"></path><path d="M753 447.7L779 425.7L768 402.9Z" fill="#081523" stroke="#000000"></path><path d="M268 -14.1L230 0L233 0Z" fill="#212529" stroke="#000000"></path><path d="M233 0L230 0L235 39.7Z" fill="#151d26" stroke="#000000"></path><path d="M679 0L614 47.6L694 73.7Z" fill="#0f1924" stroke="#000000"></path><path d="M803 327L808 257.1L791 293Z" fill="#0f1924" stroke="#000000"></path><path d="M715 0L694 73.7L752 25.9Z" fill="#0f1924" stroke="#000000"></path><path d="M230 0L181 29.9L235 39.7Z" fill="#001122" stroke="#000000"></path><path d="M169 64.9L132 56.7L140 109.9Z" fill="#212529" stroke="#000000"></path><path d="M701 605.1L734 523.3L627 522.6Z" fill="#1e2328" stroke="#000000"></path><path d="M636 -17.1L593 -51.1L598 -19.1Z" fill="#121b25" stroke="#000000"></path><path d="M598 -19.1L593 -51.1L551 0Z" fill="#081523" stroke="#000000"></path><path d="M380 -19.1L0 -56.1L268 -14.1Z" fill="#1b2127" stroke="#000000"></path><path d="M710 0L679 0L694 73.7Z" fill="#0f1924" stroke="#000000"></path><path d="M636 -17.1L667 -12.3L593 -51.1Z" fill="#0c1724" stroke="#000000"></path><path d="M710 0L694 73.7L715 0Z" fill="#1e2328" stroke="#000000"></path><path d="M679 0L667 -12.3L636 -17.1Z" fill="#1b2127" stroke="#000000"></path><path d="M608 644.1L652 607.1L619 600Z" fill="#081523" stroke="#000000"></path><path d="M619 600L652 607.1L627 522.6Z" fill="#181f27" stroke="#000000"></path><path d="M141 536.1L212 591.3L218 544.4Z" fill="#212529" stroke="#000000"></path><path d="M141 536.1L218 544.4L164 483.4Z" fill="#151d26" stroke="#000000"></path><path d="M53 345.6L66 358.7L108 321Z" fill="#121b25" stroke="#000000"></path><path d="M108 321L79 418.3L176 412.4Z" fill="#0f1924" stroke="#000000"></path><path d="M140 448.6L141 536.1L164 483.4Z" fill="#151d26" stroke="#000000"></path><path d="M66 358.7L79 418.3L108 321Z" fill="#212529" stroke="#000000"></path><path d="M88 643.1L316 600L303 600Z" fill="#1b2127" stroke="#000000"></path><path d="M601 607.1L608 644.1L619 600Z" fill="#212529" stroke="#000000"></path><path d="M88 643.1L303 600L286 600Z" fill="#1b2127" stroke="#000000"></path><path d="M69 438.3L141 536.1L140 448.6Z" fill="#001122" stroke="#000000"></path><path d="M140 109.9L51 156.3L139 131.6Z" fill="#1e2328" stroke="#000000"></path><path d="M31 264.1L108 321L127 291Z" fill="#181f27" stroke="#000000"></path><path d="M181 29.9L132 56.7L169 64.9Z" fill="#1e2328" stroke="#000000"></path><path d="M182 -8.3L132 56.7L181 29.9Z" fill="#041323" stroke="#000000"></path><path d="M791 525.4L769 507.6L734 523.3Z" fill="#1b2127" stroke="#000000"></path><path d="M734 523.3L769 507.6L729 472.4Z" fill="#1b2127" stroke="#000000"></path><path d="M779 425.7L831 424.3L768 402.9Z" fill="#0f1924" stroke="#000000"></path><path d="M141 536.1L203 600L212 591.3Z" fill="#001122" stroke="#000000"></path><path d="M212 591.3L203 600L258 599.1Z" fill="#0c1724" stroke="#000000"></path><path d="M258 599.1L88 643.1L286 600Z" fill="#001122" stroke="#000000"></path><path d="M31 264.1L127 291L109 186.1Z" fill="#181f27" stroke="#000000"></path><path d="M31 400.4L69 438.3L79 418.3Z" fill="#081523" stroke="#000000"></path><path d="M769 507.6L782 494.1L729 472.4Z" fill="#1e2328" stroke="#000000"></path><path d="M694 73.7L724 100.6L752 25.9Z" fill="#1b2127" stroke="#000000"></path><path d="M679 0L710 0L667 -12.3Z" fill="#212529" stroke="#000000"></path><path d="M667 -12.3L715 0L593 -51.1Z" fill="#121b25" stroke="#000000"></path><path d="M268 -14.1L182 -8.3L230 0Z" fill="#0c1724" stroke="#000000"></path><path d="M230 0L182 -8.3L181 29.9Z" fill="#151d26" stroke="#000000"></path><path d="M0 -56.1L182 -8.3L268 -14.1Z" fill="#151d26" stroke="#000000"></path><path d="M809 120.3L724 192.6L780 210.1Z" fill="#0f1924" stroke="#000000"></path><path d="M710 0L715 0L667 -12.3Z" fill="#001122" stroke="#000000"></path><path d="M31 400.4L79 418.3L66 358.7Z" fill="#001122" stroke="#000000"></path><path d="M79 418.3L69 438.3L140 448.6Z" fill="#1b2127" stroke="#000000"></path><path d="M873 194.1L809 120.3L780 210.1Z" fill="#1e2328" stroke="#000000"></path><path d="M608 644.1L701 605.1L652 607.1Z" fill="#0c1724" stroke="#000000"></path><path d="M652 607.1L701 605.1L627 522.6Z" fill="#1b2127" stroke="#000000"></path><path d="M791 525.4L804 487.3L782 494.1Z" fill="#0c1724" stroke="#000000"></path><path d="M808 78.6L752 25.9L724 100.6Z" fill="#212529" stroke="#000000"></path><path d="M804 487.3L753 447.7L782 494.1Z" fill="#001122" stroke="#000000"></path><path d="M804 487.3L779 425.7L753 447.7Z" fill="#121b25" stroke="#000000"></path><path d="M895 261.3L856 224.4L808 257.1Z" fill="#1b2127" stroke="#000000"></path><path d="M808 257.1L856 224.4L780 210.1Z" fill="#041323" stroke="#000000"></path><path d="M819 452.7L831 424.3L779 425.7Z" fill="#212529" stroke="#000000"></path><path d="M791 525.4L782 494.1L769 507.6Z" fill="#151d26" stroke="#000000"></path><path d="M791 525.4L808 484.1L804 487.3Z" fill="#0f1924" stroke="#000000"></path><path d="M804 487.3L808 484.1L779 425.7Z" fill="#181f27" stroke="#000000"></path><path d="M819 452.7L845 423.6L831 424.3Z" fill="#181f27" stroke="#000000"></path><path d="M12 196.3L31 264.1L109 186.1Z" fill="#212529" stroke="#000000"></path><path d="M53 345.6L31 400.4L66 358.7Z" fill="#151d26" stroke="#000000"></path><path d="M22 168.6L51 156.3L0 119.3Z" fill="#041323" stroke="#000000"></path><path d="M50 44.9L51 156.3L140 109.9Z" fill="#1b2127" stroke="#000000"></path><path d="M895 261.3L808 257.1L900 297.9Z" fill="#212529" stroke="#000000"></path><path d="M749 600L791 525.4L734 523.3Z" fill="#0c1724" stroke="#000000"></path><path d="M826 60.6L808 78.6L809 120.3Z" fill="#121b25" stroke="#000000"></path><path d="M809 120.3L808 78.6L724 100.6Z" fill="#151d26" stroke="#000000"></path><path d="M845 423.6L900 456.6L900 438.7Z" fill="#0f1924" stroke="#000000"></path><path d="M900 432.4L845 423.6L900 438.7Z" fill="#081523" stroke="#000000"></path><path d="M831 424.3L845 423.6L803 327Z" fill="#121b25" stroke="#000000"></path><path d="M5 376.7L31 400.4L53 345.6Z" fill="#001122" stroke="#000000"></path><path d="M31 513.3L89 570.4L141 536.1Z" fill="#001122" stroke="#000000"></path><path d="M31 264.1L16 312.9L53 345.6Z" fill="#1e2328" stroke="#000000"></path><path d="M0 268.4L16 312.9L31 264.1Z" fill="#151d26" stroke="#000000"></path><path d="M800 600L749 600L798 621.1Z" fill="#001122" stroke="#000000"></path><path d="M701 605.1L749 600L734 523.3Z" fill="#0f1924" stroke="#000000"></path><path d="M50 44.9L140 109.9L132 56.7Z" fill="#0f1924" stroke="#000000"></path><path d="M51 156.3L12 196.3L109 186.1Z" fill="#121b25" stroke="#000000"></path><path d="M900 242.4L873 194.1L856 224.4Z" fill="#0f1924" stroke="#000000"></path><path d="M856 224.4L873 194.1L780 210.1Z" fill="#1e2328" stroke="#000000"></path><path d="M22 168.6L12 196.3L51 156.3Z" fill="#001122" stroke="#000000"></path><path d="M0 247L0 268.4L31 264.1Z" fill="#181f27" stroke="#000000"></path><path d="M1 372.7L5 376.7L53 345.6Z" fill="#081523" stroke="#000000"></path><path d="M0 235.1L0 247L31 264.1Z" fill="#081523" stroke="#000000"></path><path d="M1 372.7L53 345.6L16 312.9Z" fill="#081523" stroke="#000000"></path><path d="M31 513.3L141 536.1L69 438.3Z" fill="#0c1724" stroke="#000000"></path><path d="M900 99.9L826 60.6L809 120.3Z" fill="#151d26" stroke="#000000"></path><path d="M808 78.6L826 60.6L752 25.9Z" fill="#151d26" stroke="#000000"></path><path d="M752 25.9L816 0L715 0Z" fill="#181f27" stroke="#000000"></path><path d="M12 196.3L0 235.1L31 264.1Z" fill="#0f1924" stroke="#000000"></path><path d="M-18 363.6L1 372.7L16 312.9Z" fill="#1b2127" stroke="#000000"></path><path d="M0 451.7L69 438.3L31 400.4Z" fill="#181f27" stroke="#000000"></path><path d="M0 381.9L31 400.4L5 376.7Z" fill="#0f1924" stroke="#000000"></path><path d="M141 536.1L111 600L203 600Z" fill="#181f27" stroke="#000000"></path><path d="M900 297.9L808 257.1L803 327Z" fill="#1e2328" stroke="#000000"></path><path d="M-17 377.9L0 381.9L1 372.7Z" fill="#121b25" stroke="#000000"></path><path d="M1 372.7L0 381.9L5 376.7Z" fill="#0f1924" stroke="#000000"></path><path d="M89 570.4L111 600L141 536.1Z" fill="#0f1924" stroke="#000000"></path><path d="M203 600L88 643.1L258 599.1Z" fill="#081523" stroke="#000000"></path><path d="M791 525.4L811 560.4L808 484.1Z" fill="#081523" stroke="#000000"></path><path d="M900 322.1L900 297.9L803 327Z" fill="#0f1924" stroke="#000000"></path><path d="M749 600L811 560.4L791 525.4Z" fill="#001122" stroke="#000000"></path><path d="M900 322.1L803 327L900 393Z" fill="#081523" stroke="#000000"></path><path d="M900 393L803 327L845 423.6Z" fill="#0f1924" stroke="#000000"></path><path d="M900 297.9L900 245.3L895 261.3Z" fill="#212529" stroke="#000000"></path><path d="M895 261.3L900 245.3L856 224.4Z" fill="#041323" stroke="#000000"></path><path d="M873 194.1L895 135.7L809 120.3Z" fill="#1e2328" stroke="#000000"></path><path d="M900 245.3L900 242.4L856 224.4Z" fill="#081523" stroke="#000000"></path><path d="M0 381.9L0 415.4L31 400.4Z" fill="#1e2328" stroke="#000000"></path><path d="M0 247L-15 239.4L0 268.4Z" fill="#212529" stroke="#000000"></path><path d="M0 268.4L-18 363.6L16 312.9Z" fill="#181f27" stroke="#000000"></path><path d="M0 381.9L-17 377.9L0 415.4Z" fill="#212529" stroke="#000000"></path><path d="M0 235.1L-15 239.4L0 247Z" fill="#1e2328" stroke="#000000"></path><path d="M12 196.3L-15 239.4L0 235.1Z" fill="#001122" stroke="#000000"></path><path d="M0 119.3L-15 239.4L12 196.3Z" fill="#212529" stroke="#000000"></path><path d="M59 0L50 44.9L132 56.7Z" fill="#181f27" stroke="#000000"></path><path d="M22 168.6L0 119.3L12 196.3Z" fill="#212529" stroke="#000000"></path><path d="M-15 239.4L-18 363.6L0 268.4Z" fill="#121b25" stroke="#000000"></path><path d="M900 432.4L900 393L845 423.6Z" fill="#041323" stroke="#000000"></path><path d="M800 600L807 586.3L749 600Z" fill="#1e2328" stroke="#000000"></path><path d="M749 600L807 586.3L811 560.4Z" fill="#121b25" stroke="#000000"></path><path d="M845 423.6L819 452.7L900 456.6Z" fill="#151d26" stroke="#000000"></path><path d="M0 451.7L31 513.3L69 438.3Z" fill="#081523" stroke="#000000"></path><path d="M50 616.1L88 643.1L111 600Z" fill="#181f27" stroke="#000000"></path><path d="M0 451.7L31 400.4L0 415.4Z" fill="#151d26" stroke="#000000"></path><path d="M-18 363.6L-17 377.9L1 372.7Z" fill="#0f1924" stroke="#000000"></path><path d="M802 611.3L800 600L798 621.1Z" fill="#041323" stroke="#000000"></path><path d="M-35 389L0 451.7L0 415.4Z" fill="#081523" stroke="#000000"></path><path d="M859 4.9L816 0L826 60.6Z" fill="#1e2328" stroke="#000000"></path><path d="M826 60.6L816 0L752 25.9Z" fill="#081523" stroke="#000000"></path><path d="M715 0L816 0L593 -51.1Z" fill="#212529" stroke="#000000"></path><path d="M0 114.7L0 119.3L51 156.3Z" fill="#1e2328" stroke="#000000"></path><path d="M900 393L918 331.6L900 322.1Z" fill="#001122" stroke="#000000"></path><path d="M900 322.1L918 331.6L900 297.9Z" fill="#001122" stroke="#000000"></path><path d="M900 297.9L918 331.6L900 245.3Z" fill="#001122" stroke="#000000"></path><path d="M900 245.3L918 331.6L900 242.4Z" fill="#081523" stroke="#000000"></path><path d="M808 484.1L900 581.1L900 456.6Z" fill="#081523" stroke="#000000"></path><path d="M819 452.7L808 484.1L900 456.6Z" fill="#151d26" stroke="#000000"></path><path d="M900 393L921 408.9L918 331.6Z" fill="#181f27" stroke="#000000"></path><path d="M900 242.4L895 135.7L873 194.1Z" fill="#0f1924" stroke="#000000"></path><path d="M902 115.9L895 135.7L940 92.7Z" fill="#0f1924" stroke="#000000"></path><path d="M0 89.6L0 114.7L51 156.3Z" fill="#001122" stroke="#000000"></path><path d="M0 119.3L0 114.7L-15 239.4Z" fill="#1b2127" stroke="#000000"></path><path d="M824 600L811 560.4L807 586.3Z" fill="#001122" stroke="#000000"></path><path d="M900 432.4L921 408.9L900 393Z" fill="#0c1724" stroke="#000000"></path><path d="M798 621.1L749 600L701 605.1Z" fill="#181f27" stroke="#000000"></path><path d="M800 600L813 600L807 586.3Z" fill="#001122" stroke="#000000"></path><path d="M802 611.3L813 600L800 600Z" fill="#0c1724" stroke="#000000"></path><path d="M0 526.3L28 537.1L31 513.3Z" fill="#001122" stroke="#000000"></path><path d="M31 513.3L28 537.1L89 570.4Z" fill="#212529" stroke="#000000"></path><path d="M182 -8.3L59 0L132 56.7Z" fill="#181f27" stroke="#000000"></path><path d="M50 44.9L0 89.6L51 156.3Z" fill="#212529" stroke="#000000"></path><path d="M44 0L59 0L0 -56.1Z" fill="#001122" stroke="#000000"></path><path d="M608 644.1L798 621.1L701 605.1Z" fill="#212529" stroke="#000000"></path><path d="M802 611.3L824 600L813 600Z" fill="#0c1724" stroke="#000000"></path><path d="M900 581.1L808 484.1L811 560.4Z" fill="#001122" stroke="#000000"></path><path d="M900 438.7L921 408.9L900 432.4Z" fill="#1e2328" stroke="#000000"></path><path d="M-35 389L0 491.6L0 451.7Z" fill="#001122" stroke="#000000"></path><path d="M0 451.7L0 491.6L31 513.3Z" fill="#181f27" stroke="#000000"></path><path d="M3 33.7L0 89.6L50 44.9Z" fill="#1e2328" stroke="#000000"></path><path d="M0 114.7L0 89.6L-15 239.4Z" fill="#081523" stroke="#000000"></path><path d="M-18 363.6L-35 389L-17 377.9Z" fill="#121b25" stroke="#000000"></path><path d="M-17 377.9L-35 389L0 415.4Z" fill="#121b25" stroke="#000000"></path><path d="M-15 239.4L-35 389L-18 363.6Z" fill="#121b25" stroke="#000000"></path><path d="M0 -56.1L-35 389L-15 239.4Z" fill="#121b25" stroke="#000000"></path><path d="M798 621.1L824 600L802 611.3Z" fill="#001122" stroke="#000000"></path><path d="M813 600L824 600L807 586.3Z" fill="#0c1724" stroke="#000000"></path><path d="M940 92.7L895 135.7L900 242.4Z" fill="#001122" stroke="#000000"></path><path d="M895 135.7L900 99.9L809 120.3Z" fill="#001122" stroke="#000000"></path><path d="M900 456.6L921 408.9L900 438.7Z" fill="#0c1724" stroke="#000000"></path><path d="M59 0L44 0L50 44.9Z" fill="#1b2127" stroke="#000000"></path><path d="M0 0L44 0L0 -56.1Z" fill="#0f1924" stroke="#000000"></path><path d="M902 115.9L900 99.9L895 135.7Z" fill="#0f1924" stroke="#000000"></path><path d="M940 92.7L904 99.4L902 115.9Z" fill="#1e2328" stroke="#000000"></path><path d="M902 115.9L904 99.4L900 99.9Z" fill="#041323" stroke="#000000"></path><path d="M900 44.6L859 4.9L826 60.6Z" fill="#181f27" stroke="#000000"></path><path d="M50 616.1L111 600L89 570.4Z" fill="#1b2127" stroke="#000000"></path><path d="M111 600L88 643.1L203 600Z" fill="#0c1724" stroke="#000000"></path><path d="M50 616.1L89 570.4L27 600Z" fill="#181f27" stroke="#000000"></path><path d="M-35 389L0 526.3L0 491.6Z" fill="#081523" stroke="#000000"></path><path d="M0 491.6L0 526.3L31 513.3Z" fill="#121b25" stroke="#000000"></path><path d="M900 68.7L826 60.6L900 99.9Z" fill="#121b25" stroke="#000000"></path><path d="M816 0L897 0L593 -51.1Z" fill="#0c1724" stroke="#000000"></path><path d="M904 99.4L900 68.7L900 99.9Z" fill="#151d26" stroke="#000000"></path><path d="M27 600L89 570.4L28 537.1Z" fill="#212529" stroke="#000000"></path><path d="M44 0L3 33.7L50 44.9Z" fill="#041323" stroke="#000000"></path><path d="M0 89.6L-1 32.7L-15 239.4Z" fill="#181f27" stroke="#000000"></path><path d="M0 0L-1 32.7L3 33.7Z" fill="#121b25" stroke="#000000"></path><path d="M3 33.7L-1 32.7L0 89.6Z" fill="#1e2328" stroke="#000000"></path><path d="M8 600L27 600L28 537.1Z" fill="#081523" stroke="#000000"></path><path d="M50 616.1L0 600.1L88 643.1Z" fill="#001122" stroke="#000000"></path><path d="M940 92.7L900 44.6L900 68.7Z" fill="#0f1924" stroke="#000000"></path><path d="M900 68.7L900 44.6L826 60.6Z" fill="#081523" stroke="#000000"></path><path d="M0 -56.1L59 0L182 -8.3Z" fill="#151d26" stroke="#000000"></path><path d="M44 0L0 0L3 33.7Z" fill="#001122" stroke="#000000"></path><path d="M-1 32.7L0 -56.1L-15 239.4Z" fill="#0c1724" stroke="#000000"></path><path d="M0 600L28 537.1L0 526.3Z" fill="#1e2328" stroke="#000000"></path><path d="M0 600L8 600L28 537.1Z" fill="#0c1724" stroke="#000000"></path><path d="M27 600L8 600L50 616.1Z" fill="#181f27" stroke="#000000"></path><path d="M918 331.6L940 92.7L900 242.4Z" fill="#1e2328" stroke="#000000"></path><path d="M904 99.4L940 92.7L900 68.7Z" fill="#041323" stroke="#000000"></path><path d="M921 408.9L940 92.7L918 331.6Z" fill="#041323" stroke="#000000"></path><path d="M900 0L897 0L900 44.6Z" fill="#181f27" stroke="#000000"></path><path d="M900 44.6L897 0L859 4.9Z" fill="#041323" stroke="#000000"></path><path d="M859 4.9L897 0L816 0Z" fill="#1b2127" stroke="#000000"></path><path d="M-35 389L0 600L0 526.3Z" fill="#1e2328" stroke="#000000"></path><path d="M8 600L0 600.1L50 616.1Z" fill="#001122" stroke="#000000"></path><path d="M-35 389L0 600.1L0 600Z" fill="#001122" stroke="#000000"></path><path d="M0 600L0 600.1L8 600Z" fill="#212529" stroke="#000000"></path><path d="M824 600L900 581.1L811 560.4Z" fill="#121b25" stroke="#000000"></path><path d="M900 456.6L900 581.1L921 408.9Z" fill="#181f27" stroke="#000000"></path><path d="M900 600L900 581.1L824 600Z" fill="#1b2127" stroke="#000000"></path><path d="M940 92.7L900 0L900 44.6Z" fill="#181f27" stroke="#000000"></path><path d="M897 0L900 0L593 -51.1Z" fill="#1b2127" stroke="#000000"></path><path d="M900 602.3L900 600L824 600Z" fill="#081523" stroke="#000000"></path><path d="M900 581.1L900 600L921 408.9Z" fill="#001122" stroke="#000000"></path><path d="M798 621.1L900 602.3L824 600Z" fill="#1e2328" stroke="#000000"></path><path d="M900 600L900 602.3L921 408.9Z" fill="#181f27" stroke="#000000"></path><path d="M593 -51.1L0 -56.1L380 -19.1Z" fill="#081523" stroke="#000000"></path><path d="M0 0L0 -56.1L-1 32.7Z" fill="#0c1724" stroke="#000000"></path></g></svg>