<svg id="visual" viewBox="0 0 900 500" width="900" height="500" xmlns="http://www.w3.org/2000/svg" xmlns:xlink="http://www.w3.org/1999/xlink" version="1.1"><path d="M0 51L13.7 51C27.3 51 54.7 51 82 46C109.3 41 136.7 31 163.8 29.3C191 27.7 218 34.3 245.2 37.7C272.3 41 299.7 41 327 42.7C354.3 44.3 381.7 47.7 409 40.8C436.3 34 463.7 17 491 17C518.3 17 545.7 34 573 35.8C600.3 37.7 627.7 24.3 654.8 16.8C682 9.3 709 7.7 736.2 11.8C763.3 16 790.7 26 818 31.8C845.3 37.7 872.7 39.3 886.3 40.2L900 41L900 0L886.3 0C872.7 0 845.3 0 818 0C790.7 0 763.3 0 736.2 0C709 0 682 0 654.8 0C627.7 0 600.3 0 573 0C545.7 0 518.3 0 491 0C463.7 0 436.3 0 409 0C381.7 0 354.3 0 327 0C299.7 0 272.3 0 245.2 0C218 0 191 0 163.8 0C136.7 0 109.3 0 82 0C54.7 0 27.3 0 13.7 0L0 0Z" fill="#212529"></path><path d="M0 56L13.7 60.2C27.3 64.3 54.7 72.7 82 73.5C109.3 74.3 136.7 67.7 163.8 66C191 64.3 218 67.7 245.2 69.3C272.3 71 299.7 71 327 71C354.3 71 381.7 71 409 64.3C436.3 57.7 463.7 44.3 491 47.7C518.3 51 545.7 71 573 74.3C600.3 77.7 627.7 64.3 654.8 50.2C682 36 709 21 736.2 18.5C763.3 16 790.7 26 818 37.7C845.3 49.3 872.7 62.7 886.3 69.3L900 76L900 39L886.3 38.2C872.7 37.3 845.3 35.7 818 29.8C790.7 24 763.3 14 736.2 9.8C709 5.7 682 7.3 654.8 14.8C627.7 22.3 600.3 35.7 573 34.2C545.7 32.7 518.3 16.3 491 16.3C463.7 16.3 436.3 32.7 409 39.2C381.7 45.7 354.3 42.3 327 40.7C299.7 39 272.3 39 245.2 35.7C218 32.3 191 25.7 163.8 27.3C136.7 29 109.3 39 82 44C54.7 49 27.3 49 13.7 49L0 49Z" fill="#1e2226"></path><path d="M0 96L13.7 100.2C27.3 104.3 54.7 112.7 82 113.5C109.3 114.3 136.7 107.7 163.8 102.7C191 97.7 218 94.3 245.2 94.3C272.3 94.3 299.7 97.7 327 94.3C354.3 91 381.7 81 409 69.3C436.3 57.7 463.7 44.3 491 51.8C518.3 59.3 545.7 87.7 573 93.5C600.3 99.3 627.7 82.7 654.8 71.8C682 61 709 56 736.2 57.7C763.3 59.3 790.7 67.7 818 74.3C845.3 81 872.7 86 886.3 88.5L900 91L900 74L886.3 67.3C872.7 60.7 845.3 47.3 818 35.7C790.7 24 763.3 14 736.2 16.5C709 19 682 34 654.8 48.2C627.7 62.3 600.3 75.7 573 72.3C545.7 69 518.3 49 491 45.7C463.7 42.3 436.3 55.7 409 62.3C381.7 69 354.3 69 327 69C299.7 69 272.3 69 245.2 67.3C218 65.7 191 62.3 163.8 64C136.7 65.7 109.3 72.3 82 71.5C54.7 70.7 27.3 62.3 13.7 58.2L0 54Z" fill="#1c1f23"></path><path d="M0 96L13.7 106.8C27.3 117.7 54.7 139.3 82 143.5C109.3 147.7 136.7 134.3 163.8 130.2C191 126 218 131 245.2 128.5C272.3 126 299.7 116 327 115.2C354.3 114.3 381.7 122.7 409 116C436.3 109.3 463.7 87.7 491 88.5C518.3 89.3 545.7 112.7 573 118.5C600.3 124.3 627.7 112.7 654.8 101.8C682 91 709 81 736.2 82.7C763.3 84.3 790.7 97.7 818 104.3C845.3 111 872.7 111 886.3 111L900 111L900 89L886.3 86.5C872.7 84 845.3 79 818 72.3C790.7 65.7 763.3 57.3 736.2 55.7C709 54 682 59 654.8 69.8C627.7 80.7 600.3 97.3 573 91.5C545.7 85.7 518.3 57.3 491 49.8C463.7 42.3 436.3 55.7 409 67.3C381.7 79 354.3 89 327 92.3C299.7 95.7 272.3 92.3 245.2 92.3C218 92.3 191 95.7 163.8 100.7C136.7 105.7 109.3 112.3 82 111.5C54.7 110.7 27.3 102.3 13.7 98.2L0 94Z" fill="#191d21"></path><path d="M0 116L13.7 126C27.3 136 54.7 156 82 161C109.3 166 136.7 156 163.8 156C191 156 218 166 245.2 166C272.3 166 299.7 156 327 151C354.3 146 381.7 146 409 136C436.3 126 463.7 106 491 104.3C518.3 102.7 545.7 119.3 573 126C600.3 132.7 627.7 129.3 654.8 123.5C682 117.7 709 109.3 736.2 110.2C763.3 111 790.7 121 818 130.2C845.3 139.3 872.7 147.7 886.3 151.8L900 156L900 109L886.3 109C872.7 109 845.3 109 818 102.3C790.7 95.7 763.3 82.3 736.2 80.7C709 79 682 89 654.8 99.8C627.7 110.7 600.3 122.3 573 116.5C545.7 110.7 518.3 87.3 491 86.5C463.7 85.7 436.3 107.3 409 114C381.7 120.7 354.3 112.3 327 113.2C299.7 114 272.3 124 245.2 126.5C218 129 191 124 163.8 128.2C136.7 132.3 109.3 145.7 82 141.5C54.7 137.3 27.3 115.7 13.7 104.8L0 94Z" fill="#161a1e"></path><path d="M0 141L13.7 152.7C27.3 164.3 54.7 187.7 82 189.3C109.3 191 136.7 171 163.8 171C191 171 218 191 245.2 194.3C272.3 197.7 299.7 184.3 327 176C354.3 167.7 381.7 164.3 409 154.3C436.3 144.3 463.7 127.7 491 126C518.3 124.3 545.7 137.7 573 142.7C600.3 147.7 627.7 144.3 654.8 139.3C682 134.3 709 127.7 736.2 127.7C763.3 127.7 790.7 134.3 818 141.8C845.3 149.3 872.7 157.7 886.3 161.8L900 166L900 154L886.3 149.8C872.7 145.7 845.3 137.3 818 128.2C790.7 119 763.3 109 736.2 108.2C709 107.3 682 115.7 654.8 121.5C627.7 127.3 600.3 130.7 573 124C545.7 117.3 518.3 100.7 491 102.3C463.7 104 436.3 124 409 134C381.7 144 354.3 144 327 149C299.7 154 272.3 164 245.2 164C218 164 191 154 163.8 154C136.7 154 109.3 164 82 159C54.7 154 27.3 134 13.7 124L0 114Z" fill="#13171b"></path><path d="M0 171L13.7 185.2C27.3 199.3 54.7 227.7 82 236.8C109.3 246 136.7 236 163.8 236.8C191 237.7 218 249.3 245.2 251C272.3 252.7 299.7 244.3 327 237.7C354.3 231 381.7 226 409 215.2C436.3 204.3 463.7 187.7 491 187.7C518.3 187.7 545.7 204.3 573 204.3C600.3 204.3 627.7 187.7 654.8 172.7C682 157.7 709 144.3 736.2 146C763.3 147.7 790.7 164.3 818 172.7C845.3 181 872.7 181 886.3 181L900 181L900 164L886.3 159.8C872.7 155.7 845.3 147.3 818 139.8C790.7 132.3 763.3 125.7 736.2 125.7C709 125.7 682 132.3 654.8 137.3C627.7 142.3 600.3 145.7 573 140.7C545.7 135.7 518.3 122.3 491 124C463.7 125.7 436.3 142.3 409 152.3C381.7 162.3 354.3 165.7 327 174C299.7 182.3 272.3 195.7 245.2 192.3C218 189 191 169 163.8 169C136.7 169 109.3 189 82 187.3C54.7 185.7 27.3 162.3 13.7 150.7L0 139Z" fill="#101519"></path><path d="M0 181L13.7 201C27.3 221 54.7 261 82 281C109.3 301 136.7 301 163.8 296.8C191 292.7 218 284.3 245.2 286C272.3 287.7 299.7 299.3 327 300.2C354.3 301 381.7 291 409 270.2C436.3 249.3 463.7 217.7 491 208.5C518.3 199.3 545.7 212.7 573 212.7C600.3 212.7 627.7 199.3 654.8 187.7C682 176 709 166 736.2 168.5C763.3 171 790.7 186 818 201C845.3 216 872.7 231 886.3 238.5L900 246L900 179L886.3 179C872.7 179 845.3 179 818 170.7C790.7 162.3 763.3 145.7 736.2 144C709 142.3 682 155.7 654.8 170.7C627.7 185.7 600.3 202.3 573 202.3C545.7 202.3 518.3 185.7 491 185.7C463.7 185.7 436.3 202.3 409 213.2C381.7 224 354.3 229 327 235.7C299.7 242.3 272.3 250.7 245.2 249C218 247.3 191 235.7 163.8 234.8C136.7 234 109.3 244 82 234.8C54.7 225.7 27.3 197.3 13.7 183.2L0 169Z" fill="#0d1216"></path><path d="M0 366L13.7 366.8C27.3 367.7 54.7 369.3 82 368.5C109.3 367.7 136.7 364.3 163.8 365.2C191 366 218 371 245.2 373.5C272.3 376 299.7 376 327 365.2C354.3 354.3 381.7 332.7 409 305.2C436.3 277.7 463.7 244.3 491 231C518.3 217.7 545.7 224.3 573 226C600.3 227.7 627.7 224.3 654.8 236C682 247.7 709 274.3 736.2 272.7C763.3 271 790.7 241 818 235.2C845.3 229.3 872.7 247.7 886.3 256.8L900 266L900 244L886.3 236.5C872.7 229 845.3 214 818 199C790.7 184 763.3 169 736.2 166.5C709 164 682 174 654.8 185.7C627.7 197.3 600.3 210.7 573 210.7C545.7 210.7 518.3 197.3 491 206.5C463.7 215.7 436.3 247.3 409 268.2C381.7 289 354.3 299 327 298.2C299.7 297.3 272.3 285.7 245.2 284C218 282.3 191 290.7 163.8 294.8C136.7 299 109.3 299 82 279C54.7 259 27.3 219 13.7 199L0 179Z" fill="#080e13"></path><path d="M0 421L13.7 415.2C27.3 409.3 54.7 397.7 82 403.5C109.3 409.3 136.7 432.7 163.8 436.8C191 441 218 426 245.2 425.2C272.3 424.3 299.7 437.7 327 427.7C354.3 417.7 381.7 384.3 409 365.2C436.3 346 463.7 341 491 331C518.3 321 545.7 306 573 303.5C600.3 301 627.7 311 654.8 332.7C682 354.3 709 387.7 736.2 384.3C763.3 381 790.7 341 818 326C845.3 311 872.7 321 886.3 326L900 331L900 264L886.3 254.8C872.7 245.7 845.3 227.3 818 233.2C790.7 239 763.3 269 736.2 270.7C709 272.3 682 245.7 654.8 234C627.7 222.3 600.3 225.7 573 224C545.7 222.3 518.3 215.7 491 229C463.7 242.3 436.3 275.7 409 303.2C381.7 330.7 354.3 352.3 327 363.2C299.7 374 272.3 374 245.2 371.5C218 369 191 364 163.8 363.2C136.7 362.3 109.3 365.7 82 366.5C54.7 367.3 27.3 365.7 13.7 364.8L0 364Z" fill="#040a10"></path><path d="M0 471L13.7 461.8C27.3 452.7 54.7 434.3 82 431.8C109.3 429.3 136.7 442.7 163.8 443.5C191 444.3 218 432.7 245.2 435.2C272.3 437.7 299.7 454.3 327 449.3C354.3 444.3 381.7 417.7 409 403.5C436.3 389.3 463.7 387.7 491 376.8C518.3 366 545.7 346 573 341.8C600.3 337.7 627.7 349.3 654.8 369.3C682 389.3 709 417.7 736.2 416.8C763.3 416 790.7 386 818 371.8C845.3 357.7 872.7 359.3 886.3 360.2L900 361L900 329L886.3 324C872.7 319 845.3 309 818 324C790.7 339 763.3 379 736.2 382.3C709 385.7 682 352.3 654.8 330.7C627.7 309 600.3 299 573 301.5C545.7 304 518.3 319 491 329C463.7 339 436.3 344 409 363.2C381.7 382.3 354.3 415.7 327 425.7C299.7 435.7 272.3 422.3 245.2 423.2C218 424 191 439 163.8 434.8C136.7 430.7 109.3 407.3 82 401.5C54.7 395.7 27.3 407.3 13.7 413.2L0 419Z" fill="#00050d"></path><path d="M0 501L13.7 501C27.3 501 54.7 501 82 501C109.3 501 136.7 501 163.8 501C191 501 218 501 245.2 501C272.3 501 299.7 501 327 501C354.3 501 381.7 501 409 501C436.3 501 463.7 501 491 501C518.3 501 545.7 501 573 501C600.3 501 627.7 501 654.8 501C682 501 709 501 736.2 501C763.3 501 790.7 501 818 501C845.3 501 872.7 501 886.3 501L900 501L900 359L886.3 358.2C872.7 357.3 845.3 355.7 818 369.8C790.7 384 763.3 414 736.2 414.8C709 415.7 682 387.3 654.8 367.3C627.7 347.3 600.3 335.7 573 339.8C545.7 344 518.3 364 491 374.8C463.7 385.7 436.3 387.3 409 401.5C381.7 415.7 354.3 442.3 327 447.3C299.7 452.3 272.3 435.7 245.2 433.2C218 430.7 191 442.3 163.8 441.5C136.7 440.7 109.3 427.3 82 429.8C54.7 432.3 27.3 450.7 13.7 459.8L0 469Z" fill="#000000"></path></svg>