<svg width="47" height="109" viewBox="0 0 47 109" fill="none" xmlns="http://www.w3.org/2000/svg">
<path d="M1.91211 101.662L5.41777 102.712L11.1364 89.6892L5.96227 88.1396L1.91211 101.662Z" fill="#9D1239"/>
<path d="M1.36068 100.25L8.26494 102.317L8.26521 102.318C9.43208 102.667 10.4123 103.466 10.9902 104.538C11.5682 105.611 11.6965 106.868 11.3471 108.035L11.3042 108.178L0 104.792L1.36068 100.25Z" fill="black"/>
<path d="M35.2284 104.526L38.6646 103.267L35.4406 89.4139L30.3694 91.2733L35.2284 104.526Z" fill="#9D1239"/>
<path d="M33.9407 103.726L40.7075 101.245L40.7077 101.245C41.8514 100.825 43.1148 100.878 44.22 101.39C45.3252 101.902 46.1817 102.832 46.601 103.976L46.6524 104.116L35.5732 108.178L33.9407 103.726Z" fill="black"/>
<path d="M7.79023 78.0872L1.82007 97.789L8.98409 99.8786L15.8499 81.6692L7.79023 78.0872Z" fill="black"/>
<path d="M26.5967 82.565L31.9701 101.073L39.4327 97.4906L34.0597 80.1769L26.5967 82.565Z" fill="black"/>
<path d="M23.8001 85.903C19.0214 85.8812 14.2538 85.4414 9.55181 84.5889L9.43205 84.5647V80.0118L6.70361 79.7086L8.83328 72.1027C7.84067 60.3849 9.25118 45.5453 9.70755 41.274C9.81213 40.2723 9.88093 39.7103 9.88093 39.7103L12.2754 19.3572L16.2818 15.6591L18.1019 16.8435L21.4781 20.2195C25.4024 29.8775 28.5165 38.9698 28.5361 39.554L41.697 81.7285L41.6082 81.7912C37.0383 85.0171 30.0721 85.903 23.8001 85.903Z" fill="#715B59"/>
<path opacity="0.2" d="M13.9734 28.3848L13.0532 34.1287L19.283 36.6984L13.9734 28.3848Z" fill="black"/>
<path d="M26.1976 15.6289H11.794C11.4978 15.6286 11.2137 15.5108 11.0042 15.3012C10.7947 15.0917 10.6768 14.8077 10.6765 14.5114V8.30298C10.6808 6.0994 11.5593 3.98755 13.119 2.43091C14.6787 0.874274 16.7922 0 18.9958 0C21.1994 0 23.313 0.874274 24.8727 2.43091C26.4324 3.98755 27.3108 6.0994 27.3151 8.30298V14.5114C27.3148 14.8077 27.1969 15.0917 26.9874 15.3012C26.7779 15.5108 26.4939 15.6286 26.1976 15.6289V15.6289Z" fill="#1B1719"/>
<path d="M20.586 15.255C23.9546 15.255 26.6854 12.5242 26.6854 9.15557C26.6854 5.78695 23.9546 3.05615 20.586 3.05615C17.2174 3.05615 14.4866 5.78695 14.4866 9.15557C14.4866 12.5242 17.2174 15.255 20.586 15.255Z" fill="#C80736" fill-opacity="0.72"/>
<path d="M29.2832 8.92376H20.4758L20.3854 7.65927L19.9339 8.92376H18.5777L18.3987 6.41758L17.5037 8.92376H14.8796V8.79958C14.8816 7.05482 15.5756 5.38208 16.8093 4.14834C18.043 2.9146 19.7158 2.2206 21.4605 2.21863H22.7022C24.447 2.22059 26.1198 2.91458 27.3535 4.14832C28.5872 5.38206 29.2812 7.05481 29.2832 8.79958V8.92376Z" fill="#1B1719"/>
<path d="M20.4038 16.7878C20.3375 16.7878 20.2713 16.7819 20.206 16.7704L13.7568 15.6325V4.97388H20.8562L20.6804 5.17882C18.235 8.03082 20.0773 12.6554 21.3931 15.1581C21.4901 15.3414 21.5334 15.5484 21.5179 15.7552C21.5024 15.962 21.4289 16.1602 21.3057 16.3271C21.2025 16.4697 21.067 16.5859 20.9102 16.666C20.7534 16.7461 20.5798 16.7878 20.4038 16.7878V16.7878Z" fill="#1B1719"/>
<path d="M31.7832 42.5505H28.2481C28.1347 42.5509 28.0252 42.5088 27.9412 42.4326C27.8572 42.3564 27.8047 42.2516 27.794 42.1387L27.0864 34.8859H32.9449L32.2372 42.1386C32.2266 42.2515 32.1741 42.3564 32.0901 42.4326C32.0061 42.5088 31.8966 42.5509 31.7832 42.5505V42.5505Z" fill="#B1AFCC"/>
<path d="M32.9356 35.7983H27.0959C26.9749 35.7982 26.859 35.75 26.7734 35.6645C26.6879 35.579 26.6398 35.463 26.6396 35.3421V34.2471C26.6398 34.1262 26.6879 34.0102 26.7734 33.9247C26.859 33.8391 26.9749 33.791 27.0959 33.7909H32.9356C33.0566 33.791 33.1725 33.8391 33.2581 33.9247C33.3436 34.0102 33.3917 34.1262 33.3918 34.2471V35.3421C33.3917 35.463 33.3436 35.579 33.2581 35.6645C33.1725 35.75 33.0566 35.7982 32.9356 35.7983V35.7983Z" fill="#2F2E41"/>
<path opacity="0.2" d="M10.0291 39.4298C11.6524 41.3095 13.8543 42.5965 16.2887 43.0885C18.7231 43.5806 21.252 43.2498 23.4779 42.1482L24.8054 41.4912L10.0291 39.4298Z" fill="black"/>
<path d="M31.2536 38.0257C30.9815 37.7201 30.6458 37.4778 30.2699 37.3159C29.8941 37.1541 29.4873 37.0766 29.0783 37.0889C28.6692 37.1013 28.2679 37.2032 27.9025 37.3874C27.5371 37.5717 27.2166 37.8338 26.9634 38.1553L20.805 36.4264L18.8416 39.9126L27.5728 42.232C28.1411 42.6214 28.8325 42.7889 29.5161 42.7026C30.1996 42.6163 30.8278 42.2823 31.2815 41.7638C31.7352 41.2453 31.983 40.5784 31.9778 39.8895C31.9727 39.2005 31.715 38.5374 31.2536 38.0257Z" fill="#9D1239"/>
<path d="M16.5576 41.8945C13.6296 41.8948 9.66792 40.1781 4.96497 36.853C4.70286 36.6714 4.48132 36.4374 4.31438 36.1657C4.14744 35.894 4.03874 35.5907 3.99517 35.2748C3.64827 33.077 5.79199 30.1059 6.00218 29.8211L8.25575 23.6325C8.28169 23.5319 9.00793 20.8543 10.8311 19.9017C11.215 19.7048 11.637 19.5933 12.068 19.575C12.499 19.5566 12.9289 19.6318 13.3281 19.7953C16.801 21.0599 14.0892 30.8251 13.7169 32.1057L18.3181 34.2714L21.2399 36.1339L25.2414 36.5525L24.1549 41.5802L18.078 41.717C17.5805 41.8387 17.0698 41.8984 16.5576 41.8945V41.8945Z" fill="#715B59"/>
</svg>
