<svg width="219" height="45" viewBox="0 0 219 45" fill="none" xmlns="http://www.w3.org/2000/svg">
<path d="M0 29V0.679998H1.44V29H0ZM2.88 29V0.679998H4.32V29H2.88ZM5.76 29V0.679998H10.08V29H5.76ZM11.52 29V0.679998H12.96V29H11.52ZM18.72 29V0.679998H23.04V29H18.72ZM8.688 33.176H9.888L14.544 41.432V33.176H15.936V33.32C15.84 33.384 15.792 33.464 15.792 33.56C15.76 33.624 15.744 33.768 15.744 33.992V44.312H14.784L9.84 35.576V44.312H8.688V33.176ZM24.4688 29V0.679998H28.7888V29H24.4688ZM34.5488 29V0.679998H35.9888V29H34.5488ZM37.4288 29V0.679998H38.8688V29H37.4288ZM40.3088 29V0.679998H41.7488V29H40.3088ZM43.1888 29V0.679998H47.5088V29H43.1888ZM36.7088 44.504C35.5568 44.504 34.6768 44.152 34.0688 43.448C33.4608 42.744 33.1568 41.752 33.1568 40.472V33.176H34.5488V33.32C34.4528 33.384 34.4048 33.464 34.4048 33.56C34.3728 33.624 34.3568 33.768 34.3568 33.992V40.472C34.3568 41.432 34.5488 42.168 34.9328 42.68C35.2848 43.192 35.8928 43.448 36.7568 43.448C37.5888 43.448 38.1968 43.192 38.5807 42.68C38.9648 42.168 39.1568 41.416 39.1568 40.424V33.176H40.3568V40.424C40.3568 41.8 40.0368 42.824 39.3968 43.496C38.7568 44.168 37.8608 44.504 36.7088 44.504ZM48.9375 29V0.679998H53.2575V29H48.9375ZM54.6975 29V0.679998H59.0175V29H54.6975ZM60.4575 29V0.679998H61.8975V29H60.4575ZM67.6575 29V0.679998H69.0975V29H67.6575ZM70.5375 29V0.679998H71.9775V29H70.5375ZM61.8015 44.504C60.9695 44.504 60.2335 44.296 59.5935 43.88C58.9215 43.464 58.3935 42.84 58.0095 42.008C57.6255 41.144 57.4335 40.072 57.4335 38.792C57.4335 37.448 57.6415 36.344 58.0575 35.48C58.4735 34.648 59.0015 34.04 59.6415 33.656C60.2815 33.304 60.9695 33.128 61.7055 33.128C62.5055 33.128 63.1935 33.32 63.7695 33.704C64.3455 34.088 64.7775 34.616 65.0655 35.288L64.0095 35.816L63.8655 35.864L63.8175 35.768V35.624C63.8175 35.496 63.7375 35.32 63.5775 35.096C63.3215 34.744 63.0335 34.488 62.7135 34.328C62.3935 34.168 62.0575 34.088 61.7055 34.088C60.7455 34.088 59.9935 34.504 59.4495 35.336C58.9375 36.136 58.6815 37.272 58.6815 38.744C58.6815 39.64 58.8095 40.456 59.0655 41.192C59.3535 41.896 59.7215 42.44 60.1695 42.824C60.6495 43.208 61.1775 43.4 61.7535 43.4C62.2015 43.4 62.6175 43.288 63.0015 43.064C63.4175 42.808 63.7535 42.472 64.0095 42.056L64.9215 42.68C64.5375 43.288 64.1055 43.736 63.6255 44.024C63.1135 44.344 62.5055 44.504 61.8015 44.504ZM73.4062 29V0.679998H77.7263V29H73.4062ZM79.1663 29V0.679998H80.6063V29H79.1663ZM82.0463 29V0.679998H83.4863V29H82.0463ZM89.2463 29V0.679998H90.6863V29H89.2463ZM92.1263 29V0.679998H96.4463V29H92.1263ZM87.4223 41.048H83.8223L82.7183 44.312H81.4703L85.5503 32.984H85.6943L89.8223 44.312H88.5263L87.4223 41.048ZM87.0863 40.088L85.6463 35.864L84.1583 40.088H87.0863ZM97.875 29V0.679998H102.195V29H97.875ZM103.635 29V0.679998H107.955V29H103.635ZM109.395 29V0.679998H110.835V29H109.395ZM112.275 29V0.679998H113.715V29H112.275ZM119.475 29V0.679998H120.915V29H119.475ZM106.371 33.176H107.379L110.115 38.648L112.899 33.176H113.859V44.312H112.659V35.912L110.259 40.424H109.779L107.523 35.96V44.312H106.371V33.176ZM122.344 29V0.679998H126.664V29H122.344ZM128.104 29V0.679998H129.544V29H128.104ZM130.984 29V0.679998H135.304V29H130.984ZM141.064 29V0.679998H142.504V29H141.064ZM143.944 29V0.679998H145.384V29H143.944ZM131.176 33.176H137.992V34.28H132.328V37.928H137.032V39.08H132.328V43.208H137.944V44.312H131.176V33.176ZM146.812 29V0.679998H148.253V29H146.812ZM149.693 29V0.679998H151.133V29H149.693ZM152.573 29V0.679998H156.893V29H152.573ZM158.333 29V0.679998H159.773V29H158.333ZM165.533 29V0.679998H169.853V29H165.533ZM155.501 33.176H156.701L161.357 41.432V33.176H162.749V33.32C162.653 33.384 162.605 33.464 162.605 33.56C162.573 33.624 162.557 33.768 162.557 33.992V44.312H161.597L156.653 35.576V44.312H155.501V33.176ZM171.281 29V0.679998H172.721V29H171.281ZM174.161 29V0.679998H175.601V29H174.161ZM177.041 29V0.679998H181.361V29H177.041ZM187.121 29V0.679998H188.561V29H187.121ZM190.001 29V0.679998H194.321V29H190.001ZM180.017 33.176H182.609C183.537 33.176 184.257 33.304 184.769 33.56C185.313 33.816 185.777 34.2 186.161 34.712C186.897 35.672 187.265 37.032 187.265 38.792C187.201 40.616 186.785 41.992 186.017 42.92C185.249 43.88 184.049 44.344 182.417 44.312H180.017V33.176ZM182.321 43.352C184.785 43.352 186.017 41.864 186.017 38.888C186.017 37.384 185.745 36.232 185.201 35.432C184.625 34.632 183.729 34.232 182.513 34.232H181.217V43.352H182.321ZM195.75 29V0.679998H197.19V29H195.75ZM198.63 29V0.679998H202.95V29H198.63ZM204.39 29V0.679998H205.83V29H204.39ZM211.59 29V0.679998H215.91V29H211.59ZM217.35 29V0.679998H218.79V29H217.35ZM204.966 43.256H207.174V34.232H205.11V33.176H210.63V34.232H208.422V43.256H210.726V44.312H204.966V43.256Z" fill="white"/>
</svg>
